<?xml version="1.0" encoding="UTF-8" standalone="no"?>
<svg width="66px" height="67px" viewBox="0 0 66 67" version="1.1" xmlns="http://www.w3.org/2000/svg" xmlns:xlink="http://www.w3.org/1999/xlink">
    <!-- Generator: sketchtool 39 (31667) - http://www.bohemiancoding.com/sketch -->
    <title>A67B5DC9-2122-4062-8F93-C85858D18874</title>
    <desc>Created with sketchtool.</desc>
    <defs>
        <polygon id="path-1" points="30.163911 66.5165407 60.3277461 66.5165407 60.3277461 -3.58827738e-05 7.58939243e-05 -3.58827738e-05 7.58939243e-05 66.5165407 30.163911 66.5165407"></polygon>
    </defs>
    <g id="Page-1" stroke="none" stroke-width="1" fill="none" fill-rule="evenodd">
        <g id="Main-page" transform="translate(-781.000000, -2226.000000)">
            <g id="teraphy" transform="translate(0.000000, 1714.000000)">
                <g id="profilactic-copy-4" transform="translate(781.000000, 506.000000)">
                    <g id="ortodontia" transform="translate(0.000000, 6.000000)">
                        <g id="Group-5" transform="translate(0.000000, 44.137022)" fill="#EBE1D6">
                            <polygon id="Fill-1" points="0.087979798 19.0673261 2.34759428 19.0673261 2.34759428 16.7398043 0.087979798 16.7398043"></polygon>
                            <polygon id="Fill-3" points="4.5998771 3.24367391 6.94307239 3.24367391 6.94307239 0.916152174 4.5998771 0.916152174"></polygon>
                            <polygon id="Fill-4" points="0.087979798 14.2637174 2.34319529 14.2637174 2.34319529 11.9303696 0.087979798 11.9303696"></polygon>
                        </g>
                        <polygon id="Fill-6" fill="#932724" points="4.69518855 63.2043485 7.03838384 63.2043485 7.03838384 60.8768267 4.69518855 60.8768267"></polygon>
                        <polygon id="Fill-7" fill="#932724" points="3.92829798 53.591305 6.27735859 53.591305 6.27735859 51.2637833 3.92829798 51.2637833"></polygon>
                        <polygon id="Fill-8" fill="#932724" points="4.69518855 58.5449354 7.03838384 58.5449354 7.03838384 56.2174137 4.69518855 56.2174137"></polygon>
                        <g id="Group-13" transform="translate(4.398990, 0.000000)">
                            <polygon id="Fill-9" fill="#EBE1D6" points="4.98845455 62.0405876 7.33164983 62.0405876 7.33164983 59.7130659 4.98845455 59.7130659"></polygon>
                            <g id="Page-1" transform="translate(1.000000, 0.000000)">
                                <mask id="mask-2" fill="white">
                                    <use xlink:href="#path-1"></use>
                                </mask>
                                <g id="Clip-2"></g>
                                <path d="M54.4620099,43.0856226 C54.0315591,44.8705975 53.6128613,46.6203137 53.2338296,48.3083271 L52.8959331,49.8406142 C51.9777361,54.0173087 51.0301568,58.3335691 48.9014089,62.0577761 C48.1903571,63.3138696 47.4778363,64.0028846 46.9680533,63.9808479 C46.428888,63.9235524 44.9421435,63.0729347 42.7722603,56.3884606 C42.4564006,55.4173755 42.1875525,54.390464 41.9054824,53.3003805 C40.9770016,49.74806 39.9383371,45.7829181 36.9193054,43.2354723 C36.9075525,43.2237194 36.8957996,43.217843 36.8899231,43.2119665 C36.4947311,42.8784774 36.0642804,42.568494 35.5985709,42.287893 C31.1118931,39.6199799 26.0551986,41.2830183 22.40004,46.6261902 C22.1928948,46.9244206 21.9930951,47.2402803 21.7859499,47.5840533 C20.1273188,50.3107311 19.1180367,53.2607144 18.1366677,56.1298963 C17.7179699,57.375706 17.2757662,58.6611818 16.7938965,59.8996459 C16.0417095,61.8285942 15.3365342,63.382918 13.8439132,64.1409815 C12.5128948,63.8074923 11.0834457,60.3477261 10.5325275,59.0049548 L10.3885542,58.6553054 C6.40578296,49.0311318 4.8338297,38.218444 3.31329548,27.7686276 C3.09439732,26.293636 2.88284473,24.8245208 2.66394657,23.373035 C1.4769015,15.4824173 3.89800333,6.24902836 11.9840133,3.3798464 C13.2988714,2.91413689 14.7900233,2.72462103 16.3516928,2.72462103 C19.9436794,2.72462103 23.9088213,3.72361936 26.9572353,4.61831051 C34.5084874,8.90518862 34.5084874,10.7650885 34.4746977,18.4324006 L34.4746977,19.980848 C34.4746977,20.6360734 34.9962336,21.1576093 35.651459,21.1576093 C36.2993388,21.1576093 36.8208747,20.6360734 36.8208747,19.980848 L36.8267512,18.4382771 C36.8561335,11.7170751 36.8443805,8.54966275 31.4732954,4.69911184 C31.7950316,4.57276793 32.1902236,4.4243873 32.7014757,4.24515525 C32.8674857,4.18198329 33.0393722,4.114404 33.2112587,4.03947912 L33.3904907,3.96455425 C39.209656,1.55961268 45.6017762,1.84755926 50.0781702,4.72261768 C53.7274523,7.0746711 56.1896893,10.0540367 56.9991718,13.1230183 C59.4496559,22.3799131 56.797903,33.3806477 54.4620099,43.0856226 M51.3460166,2.74812687 C46.2393722,-0.533876459 39.0083872,-0.907031717 32.488454,1.79467111 L32.2769014,1.88134891 C32.1623104,1.93276794 32.0521268,1.98418697 31.9316593,2.0253222 C31.3866176,2.21483806 30.9620433,2.37497161 30.6241468,2.50719198 C29.5384707,2.92588981 29.5384707,2.93176627 27.7549649,2.40435392 C22.6586043,0.899979964 16.1739298,-0.597048412 11.1980367,1.1644207 C4.46655091,3.55173288 -1.50687145,11.4541035 0.339806343,23.716808 C0.564580967,25.1697629 0.770257093,26.6330016 0.989155256,28.1079932 C2.53319532,38.7017829 4.12277795,49.6569748 8.22014021,59.555873 L8.36264439,59.8937695 C9.3792721,62.3736359 11.0834457,66.5165407 14.0451819,66.5165407 L14.2861168,66.5165407 L14.5035459,66.4254556 C17.2243472,65.2722002 18.2453823,62.6601134 18.9858163,60.754671 C19.4853155,59.4691952 19.9319265,58.1558062 20.3623772,56.8923671 C20.9309248,55.2234523 22.8304908,50.8792787 23.4901235,49.3293621 C23.6164674,49.1119331 23.7369348,48.9106643 23.8574023,48.7093955 C24.0131285,48.4567077 24.173262,48.2040199 24.3392721,47.9513321 C24.4318263,47.8264573 24.5287879,47.6883605 24.6330951,47.5443872 C26.2285542,45.3642202 29.8425776,41.598878 34.3938964,44.3079264 C34.7729281,44.5312319 35.1167011,44.7897962 35.4325608,45.0659899 C35.5530283,45.1688279 35.6617428,45.2892954 35.7778029,45.3980099 C35.9614423,45.5757728 36.1392052,45.7535358 36.3052153,45.9489281 C36.4594724,46.1325675 36.6093221,46.3279598 36.7532954,46.5351051 C36.8443805,46.6658563 36.9428113,46.7922002 37.0280199,46.930297 C37.2175358,47.222651 37.4011752,47.5326343 37.5730617,47.8719999 C37.9168346,48.9150717 39.3815425,52.9272252 39.6283538,53.8909648 C39.9089548,54.964888 40.2013087,56.0784773 40.5347979,57.1171418 C41.9583705,61.495105 43.8109248,66.0170416 46.7271184,66.3152719 C48.2476526,66.4651217 49.6815091,65.4323337 50.9449481,63.2227845 C53.2455825,59.1885942 54.2387044,54.6886943 55.190691,50.3445207 L55.5241802,48.8239865 C55.9032119,47.1433187 56.3219097,45.4097628 56.746484,43.6365408 C59.1514256,33.6568413 61.8707578,22.3519999 59.271893,12.5206811 C58.3125608,8.8831519 55.4947979,5.41016359 51.3460166,2.74812687 Z" id="Fill-1" fill="#CFB8AC" mask="url(#mask-2)"></path>
                            </g>
                            <path d="M21.3834899,36.3140441 L16.682436,36.3140441 C14.8084663,36.3140441 13.2908148,34.8050876 13.2908148,32.9436528 L13.2908148,22.9344354 C13.2908148,21.0730007 14.8084663,19.5640441 16.682436,19.5640441 L21.3834899,19.5640441 C23.2574596,19.5640441 24.7765774,21.0730007 24.7765774,22.9344354 L24.7765774,32.9436528 C24.7765774,34.8050876 23.2574596,36.3140441 21.3834899,36.3140441 L21.3834899,36.3140441 Z M46.3506902,36.3140441 L41.6496364,36.3140441 C39.7756667,36.3140441 38.2565488,34.8050876 38.2565488,32.9436528 L38.2565488,22.9344354 C38.2565488,21.0730007 39.7756667,19.5640441 41.6496364,19.5640441 L46.3506902,19.5640441 C48.2246599,19.5640441 49.7437778,21.0730007 49.7437778,22.9344354 L49.7437778,32.9436528 C49.7437778,34.8050876 48.2246599,36.3140441 46.3506902,36.3140441 L46.3506902,36.3140441 Z M1.37248485,25.749892 L13.2908148,25.749892 L1.37248485,25.749892 Z M24.1489882,25.749892 L38.2565488,25.749892 L24.1489882,25.749892 Z M49.7437778,24.6618702 L60.7837761,24.6618702 L49.7437778,24.6618702 Z" id="Stroke-12" stroke="#EED2BE" stroke-width="2"></path>
                        </g>
                    </g>
                </g>
            </g>
        </g>
    </g>
</svg>