<?xml version="1.0" encoding="utf-8"?>
<!-- Generator: Adobe Illustrator 20.0.0, SVG Export Plug-In . SVG Version: 6.00 Build 0)  -->
<svg version="1.1" id="Layer_1" xmlns="http://www.w3.org/2000/svg" xmlns:xlink="http://www.w3.org/1999/xlink" x="0px" y="0px"
	 viewBox="0 0 61 60" style="enable-background:new 0 0 61 60;" xml:space="preserve">
<style type="text/css">
	.st0{fill:#C6AFA1;}
	.st1{fill:#C8B3A3;}
	.st2{fill:#EBE1D6;}
	.st3{fill:#F1D5C0;}
	.st4{fill:#932724;}
	.st5{fill:#EED2BE;}
</style>
<title>medical-records</title>
<desc>Created with Sketch.</desc>
<g id="Page-1">
	<g id="Main-page" transform="translate(-1076.000000, -1462.000000)">
		<g id="about-us" transform="translate(389.000000, 1130.000000)">
			<g id="benefits" transform="translate(683.000000, 68.000000)">
				<g id="Group-3" transform="translate(4.000000, 264.000000)">
					<g id="medical-records">
						<path class="st0" d="M56.9,10.8H39.6V6.7h2c0.6,0,1-0.4,1-1V1.5c0-0.6-0.4-1-1-1H19.3c-0.6,0-1,0.4-1,1v4.1c0,0.6,0.4,1,1,1h2
							v4.1H4.1c-2.2,0-4.1,1.9-4.1,4.1v14.4c0,0.6,0.4,1,1,1h3v27.8c0,0.6,0.4,1,1,1h50.8c0.6,0,1-0.4,1-1V54h-2v3.1H6.1V30.3h7.1
							v5.1h-2c-0.6,0-1,0.4-1,1v8.2c0,0.6,0.4,1,1,1h6.1c0.6,0,1-0.4,1-1v-8.2c0-0.6-0.4-1-1-1h-2v-5.1h16.3v-2.1H15.2V12.9h31.5
							v11.3h2V12.9h8.1c1.1,0,2,0.9,2,2.1v6.2h2v-6.2C61,12.6,59.2,10.8,56.9,10.8z M2,28.3V14.9c0-1.1,0.9-2.1,2-2.1h9.1v15.4H2z
							 M16.3,37.5v6.2h-4.1v-6.2H16.3z M20.3,4.6V2.6h20.3v2.1H20.3z M37.6,10.8H23.4V6.7h14.2V10.8z"/>
						<polygon id="Fill-2" class="st1" points="25.4,24.2 35.6,24.2 35.6,22.1 25.4,22.1 						"/>
						<polygon id="Fill-3" class="st1" points="27.5,19 33.5,19 33.5,17 27.5,17 						"/>
						<path class="st2" d="M60,26.2H37.6c-0.6,0-1,0.4-1,1v18.5c0,0.3,0.2,0.6,0.4,0.8l11.2,8.2c0.2,0.1,0.4,0.2,0.6,0.2
							c0.2,0,0.4-0.1,0.6-0.2l11.2-8.2c0.2-0.2,0.4-0.5,0.4-0.8V27.3C61,26.6,60.6,26.2,60,26.2z M59,45.2l-10.2,7.5l-10.2-7.5v-8.7
							h9.2v8.2h-2v2.1h6.1v-2.1h-2v-8.2H59V45.2z M59,34.4H38.6v-6.2H59V34.4z"/>
						<polygon id="Fill-5" class="st3" points="41.7,32.4 43.7,32.4 43.7,30.3 41.7,30.3 						"/>
						<polygon id="Fill-5-Copy" class="st3" points="0,8.1 2,8.1 2,6 0,6 						"/>
						<polygon id="Fill-5-Copy-2" class="st3" points="0,3.1 2,3.1 2,1 0,1 						"/>
						<polygon id="Fill-6" class="st4" points="45.8,32.4 47.8,32.4 47.8,30.3 45.8,30.3 						"/>
						<polygon id="Fill-6-Copy" class="st4" points="4,8.1 6,8.1 6,6 4,6 						"/>
						<polygon id="Fill-6-Copy-2" class="st5" points="4,3.1 6,3.1 6,1 4,1 						"/>
						<polygon id="Fill-7" class="st3" points="49.8,32.4 51.9,32.4 51.9,30.3 49.8,30.3 						"/>
						<polygon id="Fill-7-Copy" class="st3" points="8,8.1 10,8.1 10,6 8,6 						"/>
						<polygon id="Fill-7-Copy-2" class="st3" points="8,3.1 10,3.1 10,1 8,1 						"/>
						<polygon id="Fill-8" class="st4" points="53.9,32.4 55.9,32.4 55.9,30.3 53.9,30.3 						"/>
						<polygon id="Fill-8-Copy" class="st4" points="13,8.1 15,8.1 15,6 13,6 						"/>
					</g>
				</g>
			</g>
		</g>
	</g>
</g>
</svg>
