<?xml version="1.0" encoding="utf-8"?>
<!-- Generator: Adobe Illustrator 20.0.0, SVG Export Plug-In . SVG Version: 6.00 Build 0)  -->
<svg version="1.1" id="Layer_1" xmlns="http://www.w3.org/2000/svg" xmlns:xlink="http://www.w3.org/1999/xlink" x="0px" y="0px"
	 viewBox="0 0 67 67" style="enable-background:new 0 0 67 67;" xml:space="preserve">
<style type="text/css">
	.st0{fill:#EFE5DC;}
	.st1{fill:#932724;}
	.st2{fill:#CFB8AC;}
	.st3{fill:none;stroke:#F3D8C7;}
	.st4{fill:none;stroke:#F3D8C7;stroke-width:0.5;stroke-linecap:round;stroke-linejoin:round;}
</style>
<title>Page 1</title>
<desc>Created with Sketch.</desc>
<g id="Page-1_1_">
	<g id="Main-page" transform="translate(-1072.000000, -1198.000000)">
		<g id="about-us" transform="translate(389.000000, 1130.000000)">
			<g id="benefits" transform="translate(683.000000, 68.000000)">
				<g id="Group">
					<g id="Page-1">
						<path class="st0" d="M65.9,0H1.1C0.4,0,0,0.4,0,1.1v53.6h2.2V11.2h62.5v43.5H67V1.1C67,0.4,66.6,0,65.9,0z M64.8,8.9H2.2V2.2
							h62.5V8.9z"/>
						<polygon id="Fill-3" class="st1" points="4.5,6.7 6.7,6.7 6.7,4.5 4.5,4.5 						"/>
						<polygon id="Fill-4" class="st1" points="8.9,6.7 11.2,6.7 11.2,4.5 8.9,4.5 						"/>
						<polygon id="Fill-5" class="st2" points="13.4,6.7 15.6,6.7 15.6,4.5 13.4,4.5 						"/>
						<polygon id="Fill-6" class="st1" points="60.3,6.7 62.5,6.7 62.5,4.5 60.3,4.5 						"/>
						<path id="Fill-7" class="st2" d="M8.9,64.8V17.9H48v8.9c0,0.7,0.4,1.1,1.1,1.1h8.9v36.8H8.9z M56.5,25.7h-6.3v-6.2L56.5,25.7z
							 M60.3,26.8c0-0.1,0-0.2-0.1-0.3v-0.1c-0.1-0.1-0.1-0.2-0.2-0.3L49.9,16c-0.1-0.1-0.2-0.1-0.3-0.2h-0.1
							c-0.1,0-0.2-0.1-0.3-0.1H7.8c-0.7,0-1.1,0.4-1.1,1.1v48H0V67h67v-2.2h-6.7V26.8z"/>
						<polygon id="Fill-8" class="st1" points="11.2,22.3 13.4,22.3 13.4,20.1 11.2,20.1 						"/>
						<polygon id="Fill-9" class="st0" points="15.6,22.3 17.9,22.3 17.9,20.1 15.6,20.1 						"/>
						<polygon id="Fill-10" class="st0" points="20.1,22.3 22.3,22.3 22.3,20.1 20.1,20.1 						"/>
						<polygon id="Fill-11" class="st0" points="11.2,26.8 13.4,26.8 13.4,24.6 11.2,24.6 						"/>
						<polygon id="Fill-12" class="st1" points="15.6,26.8 17.9,26.8 17.9,24.6 15.6,24.6 						"/>
						<polygon id="Fill-13" class="st0" points="13.4,46.9 40.2,46.9 40.2,44.7 13.4,44.7 						"/>
						<polygon id="Fill-14" class="st0" points="13.4,53.6 53.6,53.6 53.6,51.4 13.4,51.4 						"/>
						<polygon id="Fill-15" class="st2" points="13.4,60.3 42.4,60.3 42.4,58.1 13.4,58.1 						"/>
						<polygon id="Fill-16" class="st1" points="42.4,46.9 49.1,46.9 49.1,44.7 42.4,44.7 						"/>
						<path id="Stroke-17" class="st3" d="M36.5,28.8c-0.5-0.2-1.1-0.1-1.7,0.2c-1.5,0.9-3.3,0.9-4.8,0c-0.6-0.3-1.2-0.4-1.7-0.2
							c-1.6,0.7-1.8,4-0.5,7.4c0.4,1.1,0.9,2.2,1.4,3.2c0.3,0.5,1,0.4,1.1-0.2c0.4-1.6,1.2-2.8,2.2-2.8c0.9,0,1.8,1.1,2.1,2.7
							c0.1,0.6,0.8,0.7,1.1,0.2c0.6-1,1.1-2,1.5-3.1C38.3,32.7,38.1,29.4,36.5,28.8L36.5,28.8z"/>
						<path id="Stroke-18" class="st4" d="M30,29c0,0,1.4,2.5,4.3,2.4"/>
					</g>
				</g>
			</g>
		</g>
	</g>
</g>
</svg>
