<?xml version="1.0" encoding="UTF-8" standalone="no"?>
<svg width="59px" height="82px" viewBox="0 0 59 82" version="1.1" xmlns="http://www.w3.org/2000/svg" xmlns:xlink="http://www.w3.org/1999/xlink">
    <!-- Generator: Sketch 39.1 (31720) - http://www.bohemiancoding.com/sketch -->
    <title>implant</title>
    <desc>Created with Sketch.</desc>
    <defs>
        <polygon id="path-1" points="29.3050239 46.7165758 58.61 46.7165758 58.61 0 29.3050239 0 4.77370625e-05 0 4.77370625e-05 46.7165758 29.3050239 46.7165758"></polygon>
    </defs>
    <g id="Page-1" stroke="none" stroke-width="1" fill="none" fill-rule="evenodd">
        <g id="Main-page" transform="translate(-1173.000000, -2464.000000)">
            <g id="teraphy" transform="translate(0.000000, 1714.000000)">
                <g id="profilactic-copy-8" transform="translate(1173.000000, 750.000000)">
                    <g id="implant">
                        <g id="ortopedia">
                            <polygon id="Fill-1" fill="#932724" points="25.2428571 11.8069762 27.5257143 11.8069762 27.5257143 9.53295572 25.2428571 9.53295572"></polygon>
                            <polygon id="Fill-2" fill="#EFE4D5" points="19.9485714 7.11093891 22.2314286 7.11093891 22.2314286 4.83691842 19.9485714 4.83691842"></polygon>
                            <polygon id="Fill-3" fill="#932724" points="25.2385714 7.11378499 27.5214286 7.11378499 27.5214286 4.83407234 25.2385714 4.83407234"></polygon>
                            <polygon id="Fill-4" fill="#EFE4D5" points="29.8128571 11.8069762 32.0957143 11.8069762 32.0957143 9.53295572 29.8128571 9.53295572"></polygon>
                            <polygon id="Fill-5" fill="#932724" points="19.9442857 2.41490161 22.2328571 2.41490161 22.2328571 0.140881119 19.9442857 0.140881119"></polygon>
                            <polygon id="Fill-6" fill="#EFE4D5" points="29.8128571 7.25466611 32.0957143 7.25466611 32.0957143 4.98064562 29.8128571 4.98064562"></polygon>
                            <polygon id="Fill-7" fill="#932724" points="34.3842857 10.669966 36.6671429 10.669966 36.6671429 8.39594548 34.3842857 8.39594548"></polygon>
                            <g id="Group-11" transform="translate(0.000000, 12.807374)">
                                <path d="M2.75285714,14.7967866 C3.53428571,9.11600453 6.52428571,5.4246346 11.8657143,3.54052752 C16.8042857,1.80014763 23.7842857,3.50779756 26.5585714,4.31893128 C28.83,4.98633779 29.1928571,4.99202996 30.8214286,4.3573534 C31.1342857,4.23497182 31.5142857,4.09124462 32.01,3.91905658 C32.1728571,3.86355796 32.3342857,3.79667501 32.5014286,3.72409988 L32.68,3.6458326 C37.9928571,1.45577156 44.36,1.92822138 48.9071429,4.84118755 C52.4628571,7.11520803 54.8514286,10.0054055 55.6428571,12.9795625 C55.7885714,13.5359718 55.9228571,13.91877 56.0342857,14.2517617 C56.1014286,14.4524106 56.1571429,14.6189064 56.2071429,14.7967866 L35.4314286,14.7967866 L35.4314286,17.0153085 L32.7857143,17.8933252 C32.1828571,18.093974 31.86,18.7386119 32.06,19.3334433 C32.2228571,19.8115852 32.6685714,20.111847 33.1485714,20.111847 C33.2657143,20.111847 33.3885714,20.0947705 33.5057143,20.0563484 L35.4314286,19.4159797 L35.4314286,23.8473312 L32.7857143,24.7253479 C32.1885714,24.9245737 31.8657143,25.5706346 32.0657143,26.165466 C32.2228571,26.643608 32.6685714,26.9424467 33.1485714,26.9424467 C33.2657143,26.9424467 33.3885714,26.9267933 33.5114286,26.8869481 L35.4314286,26.2480024 L35.4314286,30.677931 L32.7857143,31.5573707 C32.1885714,31.7565965 31.8657143,32.4012343 32.0657143,32.9960657 C32.2228571,33.4742077 32.6685714,33.7744695 33.1485714,33.7744695 C33.2657143,33.7744695 33.3885714,33.758816 33.5114286,33.7189709 L35.4371429,33.0800252 L35.4371429,37.5711445 L33.1485714,37.5711445 L33.1485714,42.8862049 L30.2914286,46.6771877 L29.1471429,46.6771877 L26.29,42.8862049 L26.29,37.5654523 L24.0085714,37.5654523 L24.0085714,36.5380163 L28.9242857,34.9869009 C29.5271429,34.7919442 29.8557143,34.1529986 29.6671429,33.552475 C29.4771429,32.9576436 28.83,32.6246519 28.2328571,32.8124934 L24.0085714,34.1529986 L24.0085714,29.7116857 L28.9242857,28.1548782 C29.5271429,27.9656137 29.8557143,27.326668 29.6671429,26.7261444 C29.4771429,26.1256209 28.83,25.7926291 28.2328571,25.9875858 L24.0085714,27.3209758 L24.0085714,22.879663 L28.9242857,21.3285476 C29.5271429,21.1335909 29.8557143,20.4946452 29.6671429,19.8941217 C29.4771429,19.2935981 28.83,18.9662985 28.2328571,19.1555631 L24.0085714,20.4946452 L24.0085714,14.7967866 L2.75285714,14.7967866 L2.75285714,14.7967866 Z M21.7142857,21.2118582 L20.23,21.684308 C19.6271429,21.8735725 19.2928571,22.5125182 19.4885714,23.1130418 C19.6385714,23.5968759 20.09,23.908522 20.5757143,23.908522 C20.6871429,23.908522 20.8042857,23.8914455 20.9228571,23.8530234 L21.7142857,23.6025681 L21.7142857,28.0438809 L20.23,28.5163308 C19.6271429,28.7055953 19.2928571,29.344541 19.4885714,29.9450645 C19.6385714,30.4288987 20.09,30.7391217 20.5757143,30.7391217 C20.6871429,30.7391217 20.8042857,30.7234683 20.9228571,30.6836231 L21.7142857,30.4345908 L21.7142857,34.8759037 L20.23,35.3483535 C19.6271429,35.537618 19.2928571,36.1765637 19.4885714,36.7770873 C19.6385714,37.2594984 20.09,37.5711445 20.5757143,37.5711445 C20.6871429,37.5711445 20.8042857,37.554068 20.9228571,37.5156459 L21.7142857,37.2651906 L21.7142857,39.845165 L24.0028571,39.845165 L24.0028571,43.64184 L28.0042857,48.9554774 L31.43,48.9554774 L35.4314286,43.64184 L35.4314286,39.845165 L37.7185714,39.845165 L37.7185714,32.3186979 L39.22,31.8177873 C39.8228571,31.6185615 40.1414286,30.9725006 39.9457143,30.3790922 C39.7442857,29.7842608 39.0971429,29.4555382 38.5,29.6561871 L37.7128571,29.9166037 L37.7128571,25.4866752 L39.22,24.9857645 C39.8171429,24.7865387 40.1414286,24.1419009 39.94,23.5470695 C39.7442857,22.9522381 39.0971429,22.6235155 38.4942857,22.8241643 L37.7128571,23.086004 L37.7128571,18.6546524 L39.22,18.1551648 C39.7,17.9986302 39.9842857,17.5546413 39.9842857,17.0764993 L58.8128571,17.0764993 L58.69,15.8256457 C58.5785714,14.6644438 58.4,14.1407644 58.1928571,13.5302796 C58.0928571,13.23571 57.9814286,12.8899109 57.8471429,12.3961154 C56.91,8.87124138 54.1757143,5.50859406 50.1414286,2.92861963 C44.9842857,-0.378529067 37.7857143,-0.923554003 31.81,1.53973102 L31.5914286,1.63365176 C31.48,1.6791891 31.3742857,1.72899555 31.2628571,1.76741768 C30.7328571,1.95099004 30.3257143,2.10610158 29.99,2.23417532 C28.9357143,2.64543435 28.9414286,2.64543435 27.2,2.13456241 C23.4942857,1.04451254 16.4685714,-0.500910646 11.1057143,1.39458077 C4.53857143,3.71271555 0.917142857,8.57667176 0.341428571,15.8484144 L0.241428571,17.0764993 L21.7142857,17.0764993 L21.7142857,21.2118582 L21.7142857,21.2118582 Z" id="Fill-8" fill="#C8B3A3"></path>
                                <g id="Page-1" transform="translate(0.000000, 22.000000)">
                                    <mask id="mask-2" fill="white">
                                        <use xlink:href="#path-1"></use>
                                    </mask>
                                    <g id="Clip-2"></g>
                                    <path d="M36.3068571,27.7114848 C36.994,29.9361515 38.8511429,35.9906061 39.3754286,37.6028485 C40.7597143,41.8485152 42.5568571,46.2323333 45.3968571,46.5214545 C46.8925714,46.6724242 48.2711429,45.6654848 49.4982857,43.5234242 C51.7368571,39.6124545 52.6968571,35.2613939 53.6225714,31.0442121 L53.9525714,29.5644242 C54.4154286,27.500697 54.9511429,25.4027879 55.4697143,23.3718182 C57.3054286,16.2292424 59.1982857,8.84027273 58.4382857,1.02972727 L58.3382857,0 L43.4325714,0 L43.4325714,2.28163636 L56.2511429,2.28163636 C56.714,9.33021212 54.9625714,16.1779697 53.2597143,22.8106667 C52.7354286,24.857303 52.194,26.972303 51.7254286,29.0630909 L51.3911429,30.5599697 C50.504,34.6048182 49.5768571,38.7878182 47.5125714,42.394 C46.8197143,43.6060303 46.1054286,44.3238485 45.6311429,44.2569091 C45.1068571,44.2013636 43.6611429,43.3781515 41.5525714,36.8964242 C40.8268571,34.6774545 39.9397143,31.8446364 38.9068571,28.4734545 C38.8911429,28.4236061 38.8797143,28.3737576 38.8568571,28.3239091 L38.8182857,28.1729394 L38.8011429,28.1786364 C38.4325714,27.2998788 37.8411429,27.2557273 37.3954286,27.3896061 L36.3068571,27.7114848 L36.5182857,28.4520909 M22.8354286,30.1654545 L22.4568571,29.5359394 L21.7425714,29.5914848 C21.1611429,29.6370606 20.4368571,29.6926061 16.2897143,40.3017879 C15.5597143,42.1703939 14.8725714,43.6729697 13.4225714,44.4135758 C12.1211429,44.0902727 10.7382857,40.7304848 10.2025714,39.4230303 L10.0625714,39.0883333 C6.18971429,29.7652424 4.66114286,19.2828182 3.18257143,9.15218182 C2.96971429,7.71654545 2.764,6.298 2.55114286,4.88515152 L2.47828571,4.40090909 C2.32257143,3.3939697 2.26685714,3.02651515 2.29971429,2.28163636 L16.0054286,2.28163636 L16.0054286,0 L0.168285714,0 L0.0854285714,1.05109091 C-0.0602857143,2.87127273 -0.0217142857,3.21593939 0.218285714,4.74557576 L0.291142857,5.22412121 C0.504,6.63127273 0.709714286,8.04981818 0.916857143,9.47975758 C2.41685714,19.7499697 3.96828571,30.3705455 7.94685714,39.9628182 L8.08685714,40.2903939 C9.07542857,42.6945152 10.7325714,46.7165758 13.6111429,46.7165758 L13.8454286,46.7165758 L14.0582857,46.6268485 C16.7025714,45.5088182 17.6968571,42.9779394 18.4168571,41.130697 C19.504,38.3491515 22.134,32.4641818 23.044,30.5229394" id="Fill-1" fill="#F2D7C7" mask="url(#mask-2)"></path>
                                </g>
                            </g>
                        </g>
                    </g>
                </g>
            </g>
        </g>
    </g>
</svg>