<?xml version="1.0" encoding="UTF-8" standalone="no"?>
<svg width="66px" height="70px" viewBox="0 0 66 70" version="1.1" xmlns="http://www.w3.org/2000/svg" xmlns:xlink="http://www.w3.org/1999/xlink">
    <!-- Generator: Sketch 39.1 (31720) - http://www.bohemiancoding.com/sketch -->
    <title>teraphy</title>
    <desc>Created with Sketch.</desc>
    <defs>
        <polygon id="path-1" points="61.6285905 67.9447265 61.6285905 -3.66532176e-05 7.75304215e-05 -3.66532176e-05 7.75304215e-05 67.9447265 30.814334 67.9447265"></polygon>
    </defs>
    <g id="Page-1" stroke="none" stroke-width="1" fill="none" fill-rule="evenodd">
        <g id="Main-page" transform="translate(-781.000000, -1982.000000)">
            <g id="teraphy" transform="translate(0.000000, 1714.000000)">
                <g id="profilactic-copy" transform="translate(781.000000, 255.000000)">
                    <g id="teraphy" transform="translate(0.000000, 12.000000)">
                        <polygon id="Fill-1" fill="#932724" points="53.5849014 70.4016483 55.9994933 70.4016483 55.9994933 67.9559563 53.5849014 67.9559563"></polygon>
                        <polygon id="Fill-2" fill="#932724" points="59.1771446 60.2990118 61.5917365 60.2990118 61.5917365 57.8533197 59.1771446 57.8533197"></polygon>
                        <polygon id="Fill-3" fill="#932724" points="63.256868 65.5087338 65.6714599 65.5087338 65.6714599 63.0569198 63.256868 63.0569198"></polygon>
                        <polygon id="Fill-4" fill="#EFE4D5" points="58.4186182 70.4016483 60.8332101 70.4016483 60.8332101 67.9559563 58.4186182 67.9559563"></polygon>
                        <polygon id="Fill-5" fill="#932724" points="63.253846 70.4016483 65.6744819 70.4016483 65.6744819 67.9559563 63.253846 67.9559563"></polygon>
                        <polygon id="Fill-6" fill="#EFE4D5" points="58.4186182 65.5056728 60.8332101 65.5056728 60.8332101 63.0599808 58.4186182 63.0599808"></polygon>
                        <polygon id="Fill-7" fill="#C8B3A3" points="7.85875623 11.1678441 10.2733481 11.1678441 10.2733481 8.72215204 7.85875623 8.72215204"></polygon>
                        <polygon id="Fill-8" fill="#C8B3A3" points="12.692473 11.1678441 15.1070649 11.1678441 15.1070649 8.72215204 12.692473 8.72215204"></polygon>
                        <polygon id="Fill-9" fill="#C8B3A3" points="17.5277009 11.1678441 19.9483368 11.1678441 19.9483368 8.72215204 17.5277009 8.72215204"></polygon>
                        <polygon id="Fill-10" fill="#C8B3A3" points="17.5277009 16.0638196 19.9483368 16.0638196 19.9483368 13.6181275 17.5277009 13.6181275"></polygon>
                        <polygon id="Fill-11" fill="#C8B3A3" points="21.7388821 11.1678441 24.159518 11.1678441 24.159518 8.72215204 21.7388821 8.72215204"></polygon>
                        <polygon id="Fill-12" fill="#C8B3A3" points="21.7388821 16.0638196 24.159518 16.0638196 24.159518 13.6181275 21.7388821 13.6181275"></polygon>
                        <polygon id="Fill-13" fill="#C8B3A3" points="17.5277009 20.9643865 19.9483368 20.9643865 19.9483368 18.5186945 17.5277009 18.5186945"></polygon>
                        <polygon id="Fill-14" fill="#C8B3A3" points="12.689451 20.9643865 15.110087 20.9643865 15.110087 18.5186945 12.689451 18.5186945"></polygon>
                        <polygon id="Fill-15" fill="#C8B3A3" points="7.85875623 16.0638196 10.2733481 16.0638196 10.2733481 13.6181275 7.85875623 13.6181275"></polygon>
                        <polygon id="Fill-16" fill="#C8B3A3" points="7.85875623 20.9674474 10.2733481 20.9674474 10.2733481 18.5156335 7.85875623 18.5156335"></polygon>
                        <polygon id="Fill-17" fill="#C8B3A3" points="12.689451 25.8680143 15.110087 25.8680143 15.110087 23.4223223 12.689451 23.4223223"></polygon>
                        <polygon id="Fill-18" fill="#C8B3A3" points="7.85875623 25.8710753 10.2733481 25.8710753 10.2733481 23.4192614 7.85875623 23.4192614"></polygon>
                        <g id="Page-1" transform="translate(0.000000, 1.000000)">
                            <mask id="mask-2" fill="white">
                                <use xlink:href="#path-1"></use>
                            </mask>
                            <g id="Clip-2"></g>
                            <path d="M55.6363717,44.0107199 C55.1966391,45.8340203 54.7689129,47.6213049 54.3817082,49.3455618 L54.0365256,50.9107489 C53.0985296,55.1771217 52.1305177,59.5860572 49.9558677,63.3902271 C49.2294836,64.6732904 48.5015987,65.3770993 47.9808233,65.3545895 C47.430032,65.2960638 45.9112288,64.4271823 43.6945566,57.599185 C43.371886,56.6072495 43.0972407,55.5582891 42.8090883,54.4448003 C41.8605867,50.8162074 40.7995256,46.7659294 37.7153947,44.1637871 C37.7033883,44.1517818 37.691382,44.1457792 37.6853788,44.1397765 C37.2816653,43.799127 36.8419328,43.482488 36.3661812,43.1958622 C31.7827574,40.4706659 26.6170256,42.1694116 22.883051,47.6273075 C22.6714391,47.9319412 22.4673312,48.2545829 22.2557193,48.605737 C20.5613233,51.3909597 19.530278,54.4042825 18.5277479,57.335069 C18.1000217,58.6076277 17.6482828,59.9207041 17.1560225,61.1857594 C16.3876161,63.1561244 15.6672352,64.7438213 14.1424288,65.5181613 C12.7827098,65.1775117 11.3224375,61.6434603 10.7596399,60.2718582 L10.6125621,59.9147014 C6.54391056,50.0838859 4.93806135,39.0390374 3.38473992,28.3648516 C3.16112167,26.8581903 2.94500738,25.3575315 2.72138913,23.8748806 C1.50874786,15.8148424 3.98205579,6.38320211 12.242424,3.45241555 C13.5856344,2.97670672 15.1089399,2.78312174 16.7042836,2.78312174 C20.373724,2.78312174 24.4243661,3.8035697 27.5385129,4.71747088 C35.2525923,9.09639315 35.2525923,10.9962271 35.218074,18.8281652 L35.218074,20.4098596 C35.218074,21.0791534 35.7508558,21.6118872 36.4202098,21.6118872 C37.0820598,21.6118872 37.6148415,21.0791534 37.6148415,20.4098596 L37.6208447,18.8341679 C37.6508606,11.968654 37.6388542,8.73323373 32.1519526,4.80000711 C32.4806264,4.67095046 32.8843399,4.51938393 33.4066161,4.33630356 C33.5762058,4.27177523 33.7517987,4.20274493 33.9273915,4.12621133 L34.1104883,4.04967773 C40.055132,1.59309934 46.5850852,1.88722846 51.1580034,4.82401765 C54.8859748,7.22657233 57.401305,10.2699083 58.2282423,13.4047845 C60.7315661,22.8604353 58.0226336,34.0973681 55.6363717,44.0107199 M60.5499701,12.7895144 C59.5699518,9.07388327 56.6914296,5.52632596 52.4531883,2.80713228 C47.2364296,-0.545339394 39.8495233,-0.926506719 33.189001,1.83320474 L32.9728867,1.92174361 C32.8558248,1.97426667 32.7432653,2.02678972 32.6202002,2.06880817 C32.0634058,2.26239315 31.6296764,2.42596495 31.2844939,2.56102424 C30.1754074,2.98871199 30.1754074,2.99471462 28.3534439,2.45597813 C23.1471907,0.919303557 16.5226875,-0.609867721 11.4394994,1.18942213 C4.56286294,3.62799262 -1.53936405,11.7000361 0.347133571,24.2260348 C0.576755,25.7101863 0.786866111,27.2048424 1.01048437,28.7115038 C2.58781849,39.5327542 4.21167722,50.7231665 8.39739071,60.8346053 L8.5429677,61.1797568 C9.5815169,63.7128688 11.3224375,67.9447265 14.3480375,67.9447265 L14.5941677,67.9447265 L14.8162852,67.8516856 C17.595755,66.6736685 18.6388066,64.0054972 19.3952066,62.0591428 C19.9054764,60.7460664 20.3617177,59.4044775 20.8014502,58.1139109 C21.3822574,56.4091626 23.3227836,51.9717146 23.9966399,50.3885196 C24.1257082,50.1664221 24.2487733,49.9608319 24.3718383,49.7552416 C24.5309225,49.4971283 24.694509,49.239015 24.8640987,48.9809017 C24.9586487,48.8533457 25.057701,48.7122838 25.1642574,48.5652192 C26.7941193,46.3382416 30.4860717,42.4920532 35.1355304,45.259268 C35.5227352,45.4873681 35.8739209,45.7514841 36.1965915,46.0336079 C36.3196566,46.138654 36.4307153,46.261708 36.549278,46.3727568 C36.7368772,46.5543365 36.9184733,46.7359162 37.0880629,46.9355038 C37.2456463,47.1230862 37.3987272,47.3226738 37.545805,47.5342667 C37.6388542,47.6678253 37.7394074,47.7968819 37.8264534,47.9379439 C38.0200558,48.236575 38.207655,48.553214 38.3832479,48.8998661 C38.4012574,48.9343813 38.4192669,48.9703971 38.4357756,48.9989096 C38.7344336,49.9653339 40.2307248,54.0636329 40.4828582,55.0480651 C40.7695098,56.1450466 41.0681677,57.282546 41.4088479,58.3435117 C42.8631169,62.8154748 44.7556177,67.4345025 47.7346931,67.7391362 C49.2880145,67.8922034 50.7527891,66.8372403 52.0434717,64.5802495 C54.3937145,60.4594406 55.408251,55.8629228 56.3807653,51.4254748 L56.7214455,49.872293 C57.1086502,48.1555394 57.5363764,46.3847621 57.9701058,44.5734669 C60.426905,34.379492 63.204874,22.8319228 60.5499701,12.7895144" id="Fill-1" fill="#F2D7C7" mask="url(#mask-2)"></path>
                        </g>
                    </g>
                </g>
            </g>
        </g>
    </g>
</svg>