<?xml version="1.0" encoding="UTF-8" standalone="no"?>
<svg width="19px" height="19px" viewBox="0 0 19 19" version="1.1" xmlns="http://www.w3.org/2000/svg" xmlns:xlink="http://www.w3.org/1999/xlink">
    <!-- Generator: Sketch 39.1 (31720) - http://www.bohemiancoding.com/sketch -->
    <title>time</title>
    <desc>Created with Sketch.</desc>
    <defs></defs>
    <g id="Page-1" stroke="none" stroke-width="1" fill="none" fill-rule="evenodd">
        <g id="Main-page" transform="translate(-1546.000000, -305.000000)" fill="#FFFFFF">
            <g id="Group-7" transform="translate(1518.000000, 217.000000)">
                <path d="M37.083817,88.6270373 C32.0748489,88.6270373 28,92.7559869 28,97.8323128 C28,102.908255 32.0748489,107 37.083817,107 C42.092785,107 46.1676339,102.908255 46.1676339,97.8323128 C46.1676339,92.7559869 42.092785,88.6270373 37.083817,88.6270373 L37.083817,88.6270373 Z M37.6901617,98.1019506 C37.6901617,98.440628 37.4180257,98.7148685 37.083817,98.7148685 L32.2387361,98.7148685 C31.9045273,98.7148685 31.6342838,98.440628 31.6342838,98.1019506 C31.6342838,97.7632732 31.9045273,97.4874985 32.2387361,97.4874985 L36.4774722,97.4874985 L36.4774722,90.7381138 C36.4774722,90.3994364 36.7496082,90.1236617 37.083817,90.1236617 C37.4180257,90.1236617 37.6901617,90.3994364 37.6901617,90.7381138 L37.6901617,98.1019506 Z" id="time" transform="translate(37.083817, 97.813519) scale(-1, 1) translate(-37.083817, -97.813519) "></path>
            </g>
        </g>
    </g>
</svg>