<?xml version="1.0" encoding="UTF-8" standalone="no"?>
<svg width="30px" height="24px" viewBox="0 0 30 24" version="1.1" xmlns="http://www.w3.org/2000/svg" xmlns:xlink="http://www.w3.org/1999/xlink">
    <!-- Generator: Sketch 39.1 (31720) - http://www.bohemiancoding.com/sketch -->
    <title>Group 16</title>
    <desc>Created with Sketch.</desc>
    <defs>
        <polygon id="path-1" points="10.1376189 0.0357836422 7.88702437e-13 0.0357836422 7.88702437e-13 20.2541102 20.2752377 20.2541102 20.2752377 0.0357836422"></polygon>
    </defs>
    <g id="Page-1" stroke="none" stroke-width="1" fill="none" fill-rule="evenodd">
        <g id="Tablet-main-page" transform="translate(-715.000000, -89.000000)">
            <g id="float-button" transform="translate(704.000000, 76.000000)">
                <g id="Group-16" transform="translate(8.000000, 13.000000)">
                    <g id="phone-receiver-(1)" transform="translate(12.859821, 12.859821) rotate(15.000000) translate(-12.859821, -12.859821) translate(2.359821, 2.359821)">
                        <mask id="mask-2" fill="white">
                            <use xlink:href="#path-1"></use>
                        </mask>
                        <g id="Clip-2"></g>
                        <path d="M20.2656333,15.9920509 C20.3084209,16.3202718 20.2082471,16.606016 19.9650679,16.848671 L17.1103538,19.67571 C16.9815526,19.8185384 16.8134271,19.9398878 16.6060212,20.0398458 C16.3984837,20.1398037 16.1944973,20.2040656 15.9943249,20.2325875 C15.9799455,20.2325875 15.9369386,20.2361746 15.8653921,20.2433488 C15.7939772,20.250523 15.700993,20.2541102 15.5863959,20.2541102 C15.3146332,20.2541102 14.8745258,20.2076527 14.2664244,20.1148689 C13.6581476,20.0220852 12.9140553,19.7936036 12.0341912,19.4294678 C11.1541517,19.0652883 10.1560956,18.5191722 9.03989129,17.7910757 C7.92386236,17.0629354 6.73606774,16.0632682 5.47690198,14.7926427 C4.475251,13.8073239 3.64536423,12.8649193 2.98711014,11.9654288 C2.32881221,11.0658945 1.79949088,10.2342092 1.39875158,9.47024152 C0.998056115,8.70640511 0.697490678,8.01382978 0.497318306,7.39264675 C0.296926736,6.77168245 0.160979621,6.23615268 0.0893892831,5.78640742 C0.017798945,5.33661841 -0.0107845825,4.98324401 0.00359486082,4.72624047 C0.017798945,4.46923692 0.0249886667,4.32640857 0.0249886667,4.2978429 C0.0536160339,4.09792695 0.117972811,3.89459887 0.218190516,3.68746496 C0.318364381,3.48037478 0.439932053,3.31274285 0.583112729,3.18421921 L3.43782678,0.335657563 C3.63817451,0.135741616 3.86714961,0.0357836422 4.12470823,0.0357836422 C4.31067652,0.0357836422 4.475251,0.089240379 4.61825632,0.196372579 C4.76139315,0.303548525 4.88300467,0.435615536 4.98317853,0.592661105 L7.27981236,4.94037363 C7.40856975,5.1688115 7.44438684,5.4188158 7.38717594,5.69003656 C7.32996505,5.96138855 7.20839738,6.18982643 7.02225373,6.37539392 L5.97058158,7.42479953 C5.94199806,7.45349644 5.91683403,7.4998227 5.89544022,7.56404077 C5.87400258,7.62830259 5.863218,7.68197806 5.863218,7.72467346 C5.92042889,8.02459112 6.04918628,8.36720418 6.24957785,8.75268763 C6.42134206,9.09547567 6.68609041,9.51311189 7.0438229,10.0057713 C7.40155539,10.4982557 7.90948292,11.0658945 8.56778085,11.7084252 C9.21165549,12.3652607 9.78398364,12.8756806 10.2848968,13.2398164 C10.7855908,13.6038209 11.204129,13.8715858 11.5404677,14.0429798 C11.876631,14.2141988 12.134365,14.3177439 12.3131436,14.3534401 L12.5813114,14.4069405 C12.6099388,14.4069405 12.6564966,14.3961792 12.7208972,14.3748315 C12.7852979,14.3534401 12.8318557,14.3285052 12.8604831,14.2998083 L14.0838756,13.057661 C14.3416096,12.8292231 14.6419558,12.714873 14.9853088,12.714873 C15.2286634,12.714873 15.4218214,12.7577871 15.5648267,12.8433966 L15.5863959,12.8433966 L19.7289031,15.2850834 C20.0294685,15.4708258 20.2082471,15.7063067 20.2656333,15.9920509 L20.2656333,15.9920509 Z" id="Fill-1" fill="#FFFFFF" mask="url(#mask-2)"></path>
                    </g>
                    <path d="M26.5,1.77635684e-15 C22.9157917,1.77635684e-15 20,2.95450387 20,6.58691063 C20,10.2190429 22.9157917,13.1469247 26.5,13.1469247 C30.0842083,13.1469247 33,10.2190429 33,6.58691063 C33,2.95450387 30.0842083,1.77635684e-15 26.5,1.77635684e-15 L26.5,1.77635684e-15 Z M26.933875,6.77985222 C26.933875,7.02219564 26.7391458,7.21843068 26.5,7.21843068 L23.0330625,7.21843068 C22.7939167,7.21843068 22.6005417,7.02219564 22.6005417,6.77985222 C22.6005417,6.5375088 22.7939167,6.34017593 23.0330625,6.34017593 L26.066125,6.34017593 L26.066125,1.51059817 C26.066125,1.26825475 26.2608542,1.07092189 26.5,1.07092189 C26.7391458,1.07092189 26.933875,1.26825475 26.933875,1.51059817 L26.933875,6.77985222 Z" id="time" fill="#FFFFFF" transform="translate(26.500000, 6.573462) scale(-1, 1) translate(-26.500000, -6.573462) "></path>
                </g>
            </g>
        </g>
    </g>
</svg>