<?xml version="1.0" encoding="UTF-8" standalone="no"?>
<svg width="32px" height="31px" viewBox="0 0 32 31" version="1.1" xmlns="http://www.w3.org/2000/svg" xmlns:xlink="http://www.w3.org/1999/xlink">
    <!-- Generator: Sketch 39.1 (31720) - http://www.bohemiancoding.com/sketch -->
    <title>вк</title>
    <desc>Created with Sketch.</desc>
    <defs></defs>
    <g id="Page-1" stroke="none" stroke-width="1" fill="none" fill-rule="evenodd">
        <g id="Main-page" transform="translate(-569.000000, -4767.000000)" fill="#932724">
            <g id="вк" transform="translate(569.000000, 4767.000000)">
                <path d="M0,1.99821383 C0,0.894630804 0.889261723,1.59872116e-13 2.00174332,1.59872116e-13 L29.9982567,1.59872116e-13 C31.103789,1.59872116e-13 32,0.894337654 32,1.99821383 L32,29.0017862 C32,30.1053692 31.1107383,31 29.9982567,31 L2.00174332,31 C0.89621101,31 0,30.1056623 0,29.0017862 L0,1.99821383 Z M17.3390405,16.5450346 C16.8376884,16.2520265 16.140279,16.2520265 15.5733027,16.2520265 L13.7121856,16.2520265 L13.7121856,20.0872136 L15.4204514,20.0872136 C16.0526442,20.0872136 16.8580685,20.1316334 17.4042571,19.749378 C17.9043864,19.41195 18.1876708,18.7513573 18.1876708,18.1209212 C18.1876708,17.5369425 17.8391699,16.8364127 17.3390405,16.5450346 L17.3390405,16.5450346 Z M16.6367399,13.2705975 C17.0508649,12.9555832 17.2689328,12.3936107 17.2689328,11.874428 C17.2689328,11.3124555 17.0080666,10.7728967 16.528725,10.4798886 C16.0269652,10.1885106 15.111488,10.2557517 14.5225011,10.2557517 L13.7121856,10.2557517 L13.7121856,13.6304392 L14.7849977,13.6304392 C15.39518,13.6304392 16.1146,13.674859 16.6367399,13.2705975 L16.6367399,13.2705975 Z M16.5014156,22.9427184 L10.1057108,22.9427184 L10.1057108,7.51109276 L17.0940709,7.51109276 C19.1174141,7.51109276 20.9850528,8.79886145 20.9850528,11.0720177 C20.9850528,12.8263988 20.0043591,14.0265503 18.7562775,14.4006552 L18.7562775,14.4454826 C20.6080197,14.8289606 21.9311003,15.8351318 21.9311003,18.2611087 C21.9311003,20.5089986 20.4025876,22.9427184 16.5014156,22.9427184 L16.5014156,22.9427184 Z" id="vkontakte-logo"></path>
            </g>
        </g>
    </g>
</svg>