<?xml version="1.0" encoding="UTF-8" standalone="no"?>
<svg width="65px" height="78px" viewBox="0 0 65 78" version="1.1" xmlns="http://www.w3.org/2000/svg" xmlns:xlink="http://www.w3.org/1999/xlink">
    <!-- Generator: Sketch 39.1 (31720) - http://www.bohemiancoding.com/sketch -->
    <title>child dental</title>
    <desc>Created with Sketch.</desc>
    <defs>
        <polygon id="path-1" points="64.610619 71.4880356 64.610619 0.180242103 2.13237183e-20 0.180242103 0 71.4880356 64.610619 71.4880356"></polygon>
        <polygon id="path-3" points="32.2882664 70.9111456 64.5764516 70.9111456 64.5764516 -3.82534718e-05 8.12389103e-05 -3.82534717e-05 8.12389103e-05 70.9111456 32.2882664 70.9111456"></polygon>
    </defs>
    <g id="Page-1" stroke="none" stroke-width="1" fill="none" fill-rule="evenodd">
        <g id="Main-page" transform="translate(-1172.000000, -2233.000000)">
            <g id="teraphy" transform="translate(0.000000, 1714.000000)">
                <g id="profilactic-copy-5" transform="translate(1172.000000, 512.000000)">
                    <g id="child-dental" transform="translate(0.000000, 7.000000)">
                        <polygon id="Fill-1" fill="#932724" points="30.2126706 72.7464096 32.7269841 72.7464096 32.7269841 70.2296616 30.2126706 70.2296616"></polygon>
                        <polygon id="Fill-2" fill="#932724" points="29.2261409 77.373572 31.7404544 77.373572 31.7404544 74.856824 29.2261409 74.856824"></polygon>
                        <polygon id="Fill-3" fill="#EBE1D6" points="36.3096448 72.7464096 38.8239583 72.7464096 38.8239583 70.2296616 36.3096448 70.2296616"></polygon>
                        <polygon id="Fill-4" fill="#932724" points="36.3096448 77.6680851 38.8239583 77.6680851 38.8239583 75.1513371 36.3096448 75.1513371"></polygon>
                        <polygon id="Fill-5" fill="#EBE1D6" points="10.8675615 55.6048043 13.381875 55.6048043 13.381875 53.0880563 10.8675615 53.0880563"></polygon>
                        <polygon id="Fill-6" fill="#EBE1D6" points="51.2444782 54.3495802 53.7587917 54.3495802 53.7587917 51.8265324 51.2444782 51.8265324"></polygon>
                        <polygon id="Fill-7" fill="#EBE1D6" points="23.9001389 72.7464096 26.4144524 72.7464096 26.4144524 70.2296616 23.9001389 70.2296616"></polygon>
                        <polygon id="Fill-8" fill="#EBE1D6" points="13.381875 62.1848876 15.9024821 62.1848876 15.9024821 59.6681396 13.381875 59.6681396"></polygon>
                        <polygon id="Fill-9" fill="#EBE1D6" points="48.7317381 63.2841931 51.2460516 63.2841931 51.2460516 60.7674451 48.7317381 60.7674451"></polygon>
                        <g id="Group-14">
                            <mask id="mask-2" fill="white">
                                <use xlink:href="#path-1"></use>
                            </mask>
                            <g id="Clip-11"></g>
                            <polygon id="Fill-10" fill="#C8B3A3" mask="url(#mask-2)" points="44.9162123 54.3464303 47.4305258 54.3464303 47.4305258 51.8296823 44.9162123 51.8296823"></polygon>
                            <g id="Page-1" mask="url(#mask-2)">
                                <mask id="mask-4" fill="white">
                                    <use xlink:href="#path-3"></use>
                                </mask>
                                <g id="Clip-2"></g>
                                <path d="M58.2976089,45.9321971 C57.8368427,47.8351015 57.3886573,49.7004176 56.9829315,51.4999544 L56.6212379,53.1334765 C55.638375,57.5861162 54.6240605,62.1875426 52.3453911,66.1578 C51.5842621,67.4968809 50.8215605,68.2314176 50.275875,68.207925 C49.6987379,68.1468441 48.1072863,67.2400279 45.7845847,60.113925 C45.4464798,59.0786824 45.1586976,57.983925 44.8567621,56.8218221 C43.8628911,53.0348074 42.7510766,48.8076971 39.5194234,46.0919471 C39.5068427,46.0794176 39.4942621,46.0731529 39.4879718,46.0668882 C39.0649476,45.7113662 38.6041815,45.3809029 38.1056734,45.0817632 C33.3030121,42.2375868 27.8901895,44.0104985 23.9776089,49.7066824 C23.755875,50.0246162 23.542004,50.3613441 23.3202702,50.7278294 C21.5448266,53.6346529 20.4644637,56.7795353 19.4139798,59.8382779 C18.9657944,61.1663956 18.4924476,62.5368 17.9766411,63.8570868 C17.1714798,65.9134765 16.4166411,67.5704912 14.8188992,68.3786382 C13.3941411,68.0231162 11.8640202,64.3347706 11.2743024,62.9032853 L11.1201895,62.5305353 C6.85692339,52.2705132 5.1742621,40.7434544 3.54664113,29.6032412 C3.31232661,28.0308 3.085875,26.4646235 2.85156048,24.9172412 C1.58091532,16.5053074 4.17252823,6.66188824 12.8280121,3.60314559 C14.2354718,3.10666765 15.8316411,2.90463088 17.5032944,2.90463088 C21.348254,2.90463088 25.5926492,3.96963088 28.855754,4.92343235 C36.9388185,9.49353529 36.9388185,11.4763147 36.9026492,19.6501897 L36.9026492,21.3009397 C36.9026492,21.9994544 37.4609153,22.5554471 38.1622863,22.5554471 C38.8557944,22.5554471 39.4140605,21.9994544 39.4140605,21.3009397 L39.4203508,19.6564544 C39.4518024,12.4911971 39.4392218,9.11452059 33.6898669,5.00957206 C34.0342621,4.87488088 34.4572863,4.71669706 35.0045444,4.52562353 C35.182246,4.45827794 35.3662379,4.38623382 35.5502298,4.30635882 L35.7420847,4.22648382 C41.9710766,1.66265294 48.813375,1.96962353 53.6050282,5.03463088 C57.5113185,7.54207941 60.1469637,10.7182853 61.0134556,13.9900279 C63.6365202,23.8585059 60.7980121,35.5860353 58.2976089,45.9321971 M63.4462379,13.3478956 C62.4193427,9.47004265 59.4031331,5.76760147 54.9621653,2.92968971 C49.495875,-0.569148529 41.7556331,-0.966957353 34.7765202,1.91324118 L34.5500685,2.00564559 C34.4274073,2.06046176 34.3094637,2.11527794 34.1805121,2.15913088 C33.5970847,2.36116765 33.1426089,2.53188088 32.7809153,2.67283676 C31.6187782,3.11919706 31.6187782,3.12546176 29.7096653,2.56320441 C24.2543831,0.959439706 17.3130121,-0.636494118 11.9866815,1.24135147 C4.78111694,3.78638824 -1.61299597,12.2108515 0.363737903,25.2837265 C0.604342742,26.832675 0.824504032,28.3925868 1.05881855,29.9650279 C2.71160081,41.2587265 4.41313306,52.9377044 8.79906048,63.4906015 L8.95160081,63.8508221 C10.0398266,66.4945279 11.8640202,70.9111456 15.0343427,70.9111456 L15.292246,70.9111456 L15.5249879,70.8140426 C18.4374073,69.5845941 19.5303508,66.7999324 20.3229315,64.7686015 C20.8576089,63.3981971 21.3356734,61.9980353 21.7964395,60.6511235 C22.4050282,58.8719471 24.438375,54.2407632 25.1444637,52.5884471 C25.2797056,52.3566529 25.4086573,52.1420868 25.5376089,51.9275206 C25.7043024,51.6581382 25.8757137,51.3887559 26.0534153,51.1193735 C26.1524879,50.9862485 26.2562782,50.8390279 26.3679315,50.6855426 C28.075754,48.3613368 31.9443024,44.3472265 36.8161573,47.2352559 C37.2218831,47.4733147 37.5898669,47.7489618 37.9279718,48.0434029 C38.0569234,48.1530353 38.1732944,48.2814618 38.2975282,48.3973588 C38.4941008,48.5868662 38.6843831,48.7763735 38.8620847,48.984675 C39.0272056,49.1804471 39.1876089,49.3887485 39.3417218,49.6095794 C39.4392218,49.7489691 39.5445847,49.8836603 39.6357944,50.0308809 C39.8386573,50.34255 40.0352298,50.6730132 40.2192218,51.0348 C40.2380927,51.0708221 40.2569637,51.1084103 40.2742621,51.1381676 C40.5872056,52.1467853 42.1550685,56.4240132 42.4192621,57.451425 C42.719625,58.5963 43.0325685,59.7834618 43.3895444,60.8907485 C44.913375,65.5579544 46.8963992,70.3786456 50.0179718,70.6965794 C51.6455927,70.8563294 53.1804315,69.7553074 54.5328508,67.3997779 C56.9955121,63.0990574 58.0585766,58.3018588 59.0776089,53.670675 L59.4345847,52.0496824 C59.8403105,50.2579765 60.288496,48.4098882 60.7429718,46.5195132 C63.3172863,35.8804765 66.2281331,23.8287485 63.4462379,13.3478956" id="Fill-1" fill="#EED2BE" mask="url(#mask-4)"></path>
                            </g>
                            <path d="M25.1572956,25.1124651 C25.1572956,27.2213046 23.4501429,28.9316853 21.3433433,28.9316853 C19.2365437,28.9316853 17.5278175,27.2213046 17.5278175,25.1124651 C17.5278175,23.0036256 19.2365437,21.2932449 21.3433433,21.2932449 C23.4501429,21.2932449 25.1572956,23.0036256 25.1572956,25.1124651 L25.1572956,25.1124651 Z M49.9873214,25.1124651 C49.9873214,27.2213046 48.2801687,28.9316853 46.173369,28.9316853 C44.0665694,28.9316853 42.3578433,27.2213046 42.3578433,25.1124651 C42.3578433,23.0036256 44.0665694,21.2932449 46.173369,21.2932449 C48.2801687,21.2932449 49.9873214,23.0036256 49.9873214,25.1124651 L49.9873214,25.1124651 Z" id="Stroke-13" stroke="#C6AFA1" stroke-width="2" mask="url(#mask-2)"></path>
                        </g>
                        <path d="M22.051379,35.7023359 C22.051379,35.7023359 31.6885317,46.6607418 42.6363373,35.7023359" id="Stroke-15" stroke="#F1D5C0" stroke-width="2" stroke-linecap="round" stroke-linejoin="round"></path>
                    </g>
                </g>
            </g>
        </g>
    </g>
</svg>