<?xml version="1.0" encoding="utf-8"?>
<!-- Generator: Adobe Illustrator 20.0.0, SVG Export Plug-In . SVG Version: 6.00 Build 0)  -->
<svg version="1.1" id="Layer_1" xmlns="http://www.w3.org/2000/svg" xmlns:xlink="http://www.w3.org/1999/xlink" x="0px" y="0px"
	 viewBox="0 0 66 63" style="enable-background:new 0 0 66 63;" xml:space="preserve">
<style type="text/css">
	.st0{fill:#932724;}
	.st1{fill:#F3D8C7;}
	.st2{fill:none;stroke:#F3D8C7;}
	.st3{fill:none;stroke:#F3D8C7;stroke-width:0.5;stroke-linecap:round;stroke-linejoin:round;}
	.st4{fill:none;stroke:#EBE1D6;stroke-width:2;}
	.st5{fill:none;stroke:#C6AFA1;stroke-width:2;}
</style>
<title>icon</title>
<desc>Created with Sketch.</desc>
<g id="Page-1">
	<g id="Main-page" transform="translate(-1073.000000, -1582.000000)">
		<g id="about-us" transform="translate(389.000000, 1130.000000)">
			<g id="benefits" transform="translate(683.000000, 68.000000)">
				<g id="Group-4" transform="translate(1.000000, 384.000000)">
					<g id="icon" transform="translate(0.000000, 1.000000)">
						<polygon id="Fill-1" class="st0" points="63.7,2.7 65.7,2.7 65.7,0.6 63.7,0.6 						"/>
						<polygon id="Fill-2" class="st1" points="59.7,2.7 61.7,2.7 61.7,0.6 59.7,0.6 						"/>
						<polygon id="Fill-3" class="st1" points="55.6,2.7 57.6,2.7 57.6,0.6 55.6,0.6 						"/>
						<polygon id="Fill-4" class="st1" points="59.7,6.7 61.7,6.7 61.7,4.7 59.7,4.7 						"/>
						<polygon id="Fill-5" class="st1" points="63.7,6.7 65.7,6.7 65.7,4.7 63.7,4.7 						"/>
						<polygon id="Fill-6" class="st0" points="63.7,10.8 65.7,10.8 65.7,8.8 63.7,8.8 						"/>
						<polygon id="Fill-7" class="st0" points="0,2.7 2,2.7 2,0.6 0,0.6 						"/>
						<polygon id="Fill-8" class="st1" points="0,6.7 2,6.7 2,4.7 0,4.7 						"/>
						<polygon id="Fill-9" class="st0" points="0,10.8 2,10.8 2,8.8 0,8.8 						"/>
						<polygon id="Fill-10" class="st1" points="4.1,6.7 6.1,6.7 6.1,4.7 4.1,4.7 						"/>
						<polygon id="Fill-11" class="st1" points="4.1,2.7 6.1,2.7 6.1,0.6 4.1,0.6 						"/>
						<polygon id="Fill-12" class="st1" points="8.1,2.7 10.2,2.7 10.2,0.6 8.1,0.6 						"/>
						<polygon id="Fill-13" class="st0" points="0,61.5 2,61.5 2,59.4 0,59.4 						"/>
						<polygon id="Fill-14" class="st1" points="4.1,61.5 6.1,61.5 6.1,59.4 4.1,59.4 						"/>
						<polygon id="Fill-15" class="st0" points="8.1,61.5 10.2,61.5 10.2,59.4 8.1,59.4 						"/>
						<polygon id="Fill-16" class="st1" points="4.1,57.4 6.1,57.4 6.1,55.4 4.1,55.4 						"/>
						<polygon id="Fill-17" class="st1" points="0,57.4 2,57.4 2,55.4 0,55.4 						"/>
						<polygon id="Fill-18" class="st0" points="0,53.3 2,53.3 2,51.3 0,51.3 						"/>
						<polygon id="Fill-19" class="st0" points="63.7,61.5 65.7,61.5 65.7,59.4 63.7,59.4 						"/>
						<polygon id="Fill-20" class="st0" points="63.7,57.4 65.7,57.4 65.7,55.4 63.7,55.4 						"/>
						<polygon id="Fill-21" class="st1" points="63.7,53.3 65.7,53.3 65.7,51.3 63.7,51.3 						"/>
						<polygon id="Fill-22" class="st1" points="59.7,57.4 61.7,57.4 61.7,55.4 59.7,55.4 						"/>
						<polygon id="Fill-23" class="st1" points="59.7,61.5 61.7,61.5 61.7,59.4 59.7,59.4 						"/>
						<polygon id="Fill-24" class="st0" points="55.6,61.5 57.6,61.5 57.6,59.4 55.6,59.4 						"/>
						<g id="Group-41" transform="translate(3.807692, 0.324223)">
							<path id="Stroke-25" class="st2" d="M35.6,22.2c-0.8-0.3-1.6-0.2-2.5,0.3c-2.2,1.3-4.9,1.3-7.1,0c-0.9-0.5-1.8-0.7-2.5-0.3
								c-2.3,1-2.7,5.9-0.8,10.9c0.6,1.6,1.3,3.2,2.1,4.7c0.4,0.8,1.5,0.6,1.6-0.3c0.5-2.4,1.7-4.1,3.2-4.1c1.4,0,2.6,1.6,3.1,3.9
								c0.2,0.8,1.2,1,1.6,0.3c0.8-1.4,1.6-3,2.1-4.5C38.2,28.1,37.9,23.2,35.6,22.2L35.6,22.2z"/>
							<path id="Stroke-27" class="st3" d="M26.3,22.8c0,0,2,3.7,6.3,3.5"/>
							<path id="Stroke-33" class="st4" d="M58.8,29.8c0,3-0.6,5.9-1.3,8.7l-15.2-3.8c0.4-1.6,0.6-3.2,0.6-4.9
								c0-1.7-0.2-3.3-0.6-4.9l14.9-3.7C58,24,58.8,26.8,58.8,29.8L58.8,29.8z"/>
							<path id="Stroke-35" class="st4" d="M37.6,1.6l-3.5,14.2c-1.5-0.4-3-0.6-4.6-0.6c-1.6,0-3.1,0.2-4.6,0.6L21.2,1.3
								c2.6-0.6,5.4-1,8.2-1C32.2,0.3,35,0.9,37.6,1.6L37.6,1.6z"/>
							<path id="Stroke-37" class="st4" d="M20.9,57.5l3.7-14.2c1.6,0.4,3.2,0.6,4.9,0.6c1.7,0,3.3-0.2,4.9-0.6l3.6,14.4
								c-2.8,0.7-5.6,1.2-8.5,1.2C26.4,58.9,23.7,58.1,20.9,57.5L20.9,57.5z"/>
							<path id="Stroke-39" class="st4" d="M15.7,25.2c-0.4,1.5-0.6,3-0.6,4.6c0,1.6,0.2,3.1,0.6,4.6L1.2,38.1
								C0.5,35.4,0,32.7,0,29.9c0-2.8,0.5-5.6,1.2-8.2L15.7,25.2L15.7,25.2z"/>
							<path id="Stroke-29_6_" class="st5" d="M43.7,4c-0.8-0.4-1.6-0.8-2.4-1.2c-0.2-0.3-0.5-0.5-0.8-0.5h-0.3
								c-0.9-0.4-1.8-0.7-2.8-0.9c0,0,0,0,0,0c0,0,0,0,0,0c-2.5-0.7-5.2-1.1-7.9-1.1S24,0.7,21.5,1.4h0c0,0,0,0,0,0
								c-0.9,0.3-1.9,0.6-2.8,0.9h-0.3c-0.4,0-0.7,0.2-0.9,0.5c-0.8,0.4-2.2,1.1-2.9,1.5"/>
							<path id="Stroke-29_5_" class="st5" d="M55.2,15.6c-0.1-0.1-0.5-0.8-0.5-1c0,0,0,0,0-0.1c-0.1-0.1-0.1-0.2-0.2-0.3
								c0,0,0,0,0,0c-0.7-1.1-1.4-2.1-2.2-3c0,0,0,0,0,0c-0.2-0.2-0.4-0.5-0.6-0.7c0,0,0,0-0.1,0c-0.8-0.9-1.7-1.8-2.6-2.6
								c0,0,0,0,0,0c-0.2-0.2-0.5-0.4-0.7-0.6c0,0,0,0,0,0c-1-0.8-2-1.5-3-2.2c0,0,0,0,0,0c-0.1-0.1-0.2-0.1-0.3-0.2c0,0,0,0-0.1,0
								c-0.1-0.1-0.8-0.5-1-0.6"/>
							<path id="Stroke-29_8_" class="st5" d="M55.2,44.2c0.4-0.8,0.8-1.6,1.2-2.4c0.3-0.2,0.5-0.5,0.5-0.9v-0.3
								c0.4-0.9,0.7-1.8,0.9-2.8c0,0,0,0,0,0l0,0v0c0.7-2.5,1.1-5.2,1.1-8s-0.4-5.4-1.1-8v0c0,0,0,0,0,0c-0.3-0.9-0.6-1.9-0.9-2.8
								v-0.3c0-0.4-0.2-0.7-0.5-0.9c-0.4-0.8-0.7-1.6-1.2-2.4"/>
							<path id="Stroke-29_4_" class="st5" d="M44,55.1c0.1-0.1,0.2-0.1,0.4-0.2c0,0,0.1,0,0.1,0c0.1-0.1,0.2-0.1,0.3-0.2
								c0,0,0,0,0,0c1.1-0.7,2.1-1.4,3-2.2c0,0,0,0,0,0c0.2-0.2,0.5-0.4,0.7-0.6c0,0,0,0,0,0c0.9-0.8,1.8-1.7,2.6-2.6c0,0,0,0,0,0
								c0.2-0.2,0.4-0.5,0.6-0.7c0,0,0,0,0,0c0.8-0.9,1.5-1.9,2.1-3c0,0,0,0,0.1-0.1c0.1-0.1,0.3-0.3,0.3-0.3c0.2,0,0.6-0.6,0.7-0.8
								"/>
							<path id="Stroke-29_7_" class="st5" d="M15.2,55.7c0.8,0.4,1.6,0.6,2.4,1c0.2,0.3,0.7,0.2,1.1,0.2l0.3,0.2
								c0.9,0.4,1.9,0.3,2.8,0.6c0,0,0,0,0,0h0c2.5,0.7,5.2,1.1,7.9,1.1c2.7,0,5.4-0.4,7.9-1.1h0c0,0,0,0,0,0
								c0.9-0.3,1.9-0.6,2.8-0.9h0.3c0.4,0,0.7-0.2,0.8-0.5c0.8-0.4,1.6-0.7,2.4-1.2"/>
							<path id="Stroke-29_3_" class="st5" d="M3.7,44.2c0.1,0.1,0.5,0.9,0.6,1c0,0,0,0,0,0c0.1,0.1,0.1,0.2,0.2,0.4
								c0,0,0,0,0.1,0.1c0.7,1,1.4,2,2.1,3c0,0,0,0,0,0c0.2,0.2,0.4,0.5,0.6,0.7c0,0,0,0,0,0c0.8,0.9,1.7,1.8,2.6,2.6c0,0,0,0,0,0
								c0.2,0.2,0.5,0.4,0.7,0.6c0,0,0,0,0,0c1,0.8,2,1.5,3,2.2c0,0,0,0,0,0c0.1,0.1,0.2,0.1,0.3,0.2c0,0,0,0,0.1,0
								c0.1,0.1,0.8,0.5,0.9,0.5"/>
							<path id="Stroke-29_1_" class="st5" d="M3.7,15.5c-0.4,0.8-0.8,1.6-1.2,2.4C2.2,18.1,2,18.4,2,18.8v0.3
								c-0.4,0.9-0.7,1.8-0.9,2.8c0,0,0,0,0,0c0,0,0,0,0,0c-0.7,2.5-1.1,5.2-1.1,8s0.4,5.4,1.1,8v0c0,0,0,0,0,0
								c0.3,0.9,0.6,1.9,0.9,2.8V41c0,0.4,0.2,0.7,0.5,0.9c0.4,0.8,0.7,1.6,1.2,2.4"/>
							<path id="Stroke-29_2_" class="st5" d="M14.6,4.4c-0.1,0.1-0.2,0.1-0.4,0.2c0,0-0.1,0-0.1,0c-0.1,0.1-0.2,0.1-0.3,0.2
								c0,0,0,0,0,0c-1,0.7-2.1,1.4-3,2.2c0,0,0,0,0,0c-0.2,0.2-0.5,0.4-0.7,0.6c0,0,0,0,0,0c-0.9,0.8-1.8,1.7-2.6,2.6c0,0,0,0,0,0
								c-0.2,0.2-0.4,0.5-0.6,0.7c0,0,0,0,0,0c-0.8,1-1.5,2-2.2,3c0,0,0,0,0,0c-0.1,0.1-0.1,0.2-0.2,0.4c0,0,0,0,0,0
								c-0.1,0.1-0.4,0.9-0.5,1"/>
							<path id="Stroke-31" class="st5" d="M29.4,16c7.6,0,13.8,6.2,13.8,13.8c0,7.6-6.2,13.8-13.8,13.8c-7.6,0-13.8-6.2-13.8-13.8
								C15.7,22.2,21.9,16,29.4,16z"/>
						</g>
					</g>
				</g>
			</g>
		</g>
	</g>
</g>
<path class="st5" d="M58.3,46.3"/>
</svg>
