<?xml version="1.0" encoding="UTF-8" standalone="no"?>
<svg width="67px" height="68px" viewBox="0 0 67 68" version="1.1" xmlns="http://www.w3.org/2000/svg" xmlns:xlink="http://www.w3.org/1999/xlink">
    <!-- Generator: Sketch 39.1 (31720) - http://www.bohemiancoding.com/sketch -->
    <title>profilactic</title>
    <desc>Created with Sketch.</desc>
    <defs></defs>
    <g id="Page-1" stroke="none" stroke-width="1" fill="none" fill-rule="evenodd">
        <g id="Main-page" transform="translate(-390.000000, -1975.000000)">
            <g id="teraphy" transform="translate(0.000000, 1714.000000)">
                <g id="profilactic" transform="translate(390.000000, 255.000000)">
                    <g transform="translate(0.000000, 6.000000)">
                        <polygon id="Fill-1" fill="#932724" points="0.0886956522 2.59509456 2.36226087 2.59509456 2.36226087 0.25085425 0.0886956522 0.25085425"></polygon>
                        <polygon id="Fill-3" fill="#932724" points="4.72895652 2.59509456 7.09121739 2.59509456 7.09121739 0.25085425 4.72895652 0.25085425"></polygon>
                        <g id="Group-8">
                            <polygon id="Fill-4" fill="#EFE4D5" points="9.4593913 2.59509456 11.8275652 2.59509456 11.8275652 0.25085425 9.4593913 0.25085425"></polygon>
                            <polygon id="Fill-6" fill="#EFE4D5" points="0.0886956522 7.28797612 2.36226087 7.28797612 2.36226087 4.94373581 0.0886956522 4.94373581"></polygon>
                            <polygon id="Fill-7" fill="#932724" points="0.0886956522 11.9867256 2.36226087 11.9867256 2.36226087 9.63661738 0.0886956522 9.63661738"></polygon>
                        </g>
                        <polygon id="Fill-9" fill="#EBE1D6" points="4.72895652 7.28797612 7.09121739 7.28797612 7.09121739 4.94373581 4.72895652 4.94373581"></polygon>
                        <polygon id="Fill-10" fill="#EBE1D6" points="36.2617391 18.9504983 38.624 18.9504983 38.624 16.606258 36.2617391 16.606258"></polygon>
                        <polygon id="Fill-11" fill="#EBE1D6" points="41.4105217 22.1646601 43.7727826 22.1646601 43.7727826 19.8204198 41.4105217 19.8204198"></polygon>
                        <polygon id="Fill-12" fill="#EBE1D6" points="57.1111304 31.4668051 59.4793043 31.4668051 59.4793043 29.1225648 57.1111304 29.1225648"></polygon>
                        <polygon id="Fill-13" fill="#EBE1D6" points="52.059913 29.0932251 54.428087 29.0932251 54.428087 26.7489848 52.059913 26.7489848"></polygon>
                        <polygon id="Fill-14" fill="#EBE1D6" points="31.659913 14.2825555 34.0221739 14.2825555 34.0221739 11.9383151 31.659913 11.9383151"></polygon>
                        <polygon id="Fill-15" fill="#EBE1D6" points="28.2096522 8.46889818 30.571913 8.46889818 30.571913 6.11878993 28.2096522 6.11878993"></polygon>
                        <polygon id="Fill-16" fill="#EBE1D6" points="46.6672174 25.7088932 49.0294783 25.7088932 49.0294783 23.3646529 46.6672174 23.3646529"></polygon>
                        <g id="Page-1" transform="translate(6.498475, 1.000000)">
                            <polygon id="Fill-1" fill="#EEE4DB" points="29.8283559 18.1264243 32.150228 18.1264243 32.150228 15.8045522 29.8283559 15.8045522"></polygon>
                            <polygon id="Fill-2" fill="#EEE4DB" points="34.8891072 21.3099173 37.2109793 21.3099173 37.2109793 18.9880452 34.8891072 18.9880452"></polygon>
                            <polygon id="Fill-3" fill="#EEE4DB" points="50.3212748 30.5233035 52.6489588 30.5233035 52.6489588 28.2014314 50.3212748 28.2014314"></polygon>
                            <polygon id="Fill-4" fill="#EEE4DB" points="45.3578735 28.1723717 47.6855576 28.1723717 47.6855576 25.8504995 45.3578735 25.8504995"></polygon>
                            <polygon id="Fill-5" fill="#EEE4DB" points="25.3052095 13.5030219 27.6270816 13.5030219 27.6270816 11.1811498 25.3052095 11.1811498"></polygon>
                            <polygon id="Fill-6" fill="#EEE4DB" points="21.9153925 7.74483717 24.2372646 7.74483717 24.2372646 5.41715311 21.9153925 5.41715311"></polygon>
                            <polygon id="Fill-7" fill="#EEE4DB" points="40.0559265 24.8203322 42.3777986 24.8203322 42.3777986 22.4984601 40.0559265 22.4984601"></polygon>
                            <g id="Group-13" transform="translate(0.000000, 0.397973)">
                                <path d="M13.0161419,6.6378069 C6.92667632,8.79985053 5.15548601,16.4280286 6.08685024,22.6032204 C6.17112344,23.182962 6.66513879,23.5912511 7.23325643,23.5912511 C7.2899229,23.5912511 7.34658936,23.5912511 7.40325583,23.5796272 C8.03821084,23.4837301 8.47555972,22.8923647 8.38547457,22.2574097 C7.59069106,16.9961463 8.94632729,10.5477931 13.7934896,8.82891025 C14.4008379,8.6124153 14.7190419,7.94840055 14.5025469,7.34686422 C14.2875049,6.73951595 13.6293022,6.42712389 13.0161419,6.6378069" id="Fill-8" fill="#F2D7C7"></path>
                                <g id="Group-12" fill="#C6AFA1">
                                    <path d="M22.4881597,3.49092916 C23.9861885,3.81349212 25.4115681,4.19998648 26.6829311,4.57485695 C29.9971929,6.45938019 31.8468445,7.92834934 32.8348752,9.46706184 C33.0557291,9.81287258 33.4305995,10.0003078 33.8112819,10.0003078 C34.0263239,10.0003078 34.2486308,9.9378294 34.440425,9.81287258 C34.9794829,9.46706184 35.1393114,8.75219258 34.7935007,8.20732271 C34.0045291,6.98100227 32.8682938,5.85784386 31.1668469,4.6431473 C31.4835979,4.52400243 31.8642803,4.37579782 32.3641076,4.19998648 C32.528295,4.14332001 32.6866705,4.07502966 32.846499,4.0067393 L33.0397462,3.92827804 C33.0441052,3.9224661 33.0557291,3.9224661 33.061541,3.91665415 C36.6155455,2.4578559 40.3773271,2.00888313 43.777315,2.54794105 L43.777315,2.55375299 C43.9080838,2.57118883 44.0330406,2.60024856 44.1638094,2.62204335 C46.1209819,2.97947798 47.9604626,3.66092856 49.5442177,4.67656599 C53.1476237,6.99843811 55.5770168,9.9378294 56.3834242,12.9629469 C56.3892362,12.9745708 56.3950481,12.9920066 56.4008601,13.0094425 C56.8425679,14.7065305 57.1215413,16.454473 57.25231,18.2474581 L57.2624809,18.3331843 C57.6605992,23.7644471 56.7917134,29.5647684 55.6002646,35.1950904 L55.5770168,35.2924405 C55.2312061,36.9154262 54.8621476,38.520976 54.4872771,40.1047311 C54.4436875,40.4999434 54.5250547,40.6641308 54.3753971,41.0985737 C54.2518933,41.4574614 54.280953,41.4531024 54.0281334,42.028485 C53.9772789,42.2217321 53.9307833,42.4207913 53.8857408,42.6183974 C53.4542038,44.3837758 53.0401027,46.1157354 52.6652323,47.7837637 L52.3310454,49.2992284 C51.422929,53.4315215 50.4857528,57.7047542 48.3861876,61.3837156 C47.6771303,62.6202069 46.9506371,63.3292642 46.4682457,63.2842216 C45.9349997,63.2275552 44.4645775,62.3877291 42.3185168,55.7810004 C42.0061247,54.8162175 41.7460402,53.80058 41.4612549,52.7224642 C40.5487795,49.2091433 39.5215181,45.2860803 36.5298193,42.766602 C36.5181954,42.7607901 36.5123835,42.7549781 36.5065715,42.7491662 C36.1157182,42.4207913 35.6899932,42.1083992 35.2235846,41.8308788 C30.7861645,39.1908027 25.7849856,40.8370362 22.1757676,46.1215474 C21.9708965,46.4165036 21.7732904,46.7288957 21.5684193,47.0688945 C19.9279978,49.7598251 18.9297962,52.6817806 17.9592013,55.5194628 C17.5392883,56.7515952 17.1077514,58.0229582 16.6311719,59.2492787 C15.8872429,61.1555967 15.1883565,62.6943092 13.7077634,63.4440501 C12.3913578,63.1142222 10.9834141,59.6866276 10.4385442,58.3585981 L10.2961516,58.0171463 C6.35129374,48.498633 4.80241034,37.8061068 3.29856951,27.4710152 C3.08207455,26.0122169 2.87284453,24.5592306 2.65634957,23.1236801 C1.48233663,15.3182377 3.87685806,6.18621876 11.8740947,3.3485365 C13.1745174,2.88939283 14.6492985,2.7019576 16.193823,2.7019576 C17.6177496,2.7019576 19.0997956,2.86614505 20.5644058,3.11024675 M59.585806,18.681901 C59.585806,18.6586532 59.5974299,18.6368584 59.5974299,18.6136106 C59.585806,18.4436112 59.5683702,18.2736118 59.5567463,18.1079714 C59.5509344,18.041134 59.5451224,17.9728437 59.5407635,17.9045533 C59.5291396,17.7389129 59.5175157,17.5747254 59.5000798,17.410538 C59.5000798,17.3814783 59.484097,17.3654954 59.484097,17.3364357 C59.3300804,15.7468687 59.0685429,14.1805494 58.6835015,12.6491019 C58.6776896,12.637478 58.6835015,12.631666 58.6835015,12.6200421 L58.6268351,12.4050002 C58.6268351,12.4050002 58.6268351,12.3991882 58.6210231,12.3991882 C58.6210231,12.3875643 58.6210231,12.3817524 58.6152112,12.3759404 C58.529485,12.0417536 58.421964,11.7061137 58.3086311,11.3820978 C58.2970072,11.360303 58.2795714,11.3428672 58.2694004,11.3210724 C57.7245306,9.84483828 56.8730806,8.40928781 55.7542811,7.0521986 C55.7426573,7.04057471 55.7426573,7.02313887 55.7310334,7.01296797 C55.4651369,6.69476397 55.1861635,6.38237191 54.8970192,6.08160375 C54.8912073,6.0757918 54.8853953,6.0757918 54.8810364,6.06997986 C53.8130914,4.95844533 52.5533523,3.91956012 51.1395966,2.97076006 C51.1236138,2.96058916 51.1119899,2.94315332 51.100366,2.93152943 L50.782162,2.72665836 C50.5380603,2.56828286 50.2823347,2.4157193 50.0280621,2.26751469 C50.0164382,2.26170275 50.0048143,2.26170275 49.9931904,2.2558908 C48.5750758,1.46110729 47.0131155,0.871194852 45.368335,0.496324384 C45.3567111,0.496324384 45.3508992,0.490512439 45.3450872,0.490512439 C45.2085065,0.457093754 45.0733788,0.439657919 44.9367981,0.412051179 C44.6985083,0.365555617 44.4602186,0.314701096 44.2161169,0.275470466 C44.1812452,0.269658521 44.1478265,0.263846575 44.1187668,0.25803463 C44.1071429,0.252222685 44.102784,0.25803463 44.0911601,0.25803463 C42.501593,0.0081209855 40.8495476,-0.0485454805 39.1757074,0.0822232871 L39.1640835,0.0822232871 C39.1306648,0.0822232871 39.0957931,0.0880352324 39.0623745,0.0938471776 C38.6991279,0.127265863 38.3300694,0.162137534 37.9668228,0.212992055 L37.9377631,0.212992055 C37.9377631,0.212992055 37.9377631,0.218804 37.9319511,0.218804 C36.3438371,0.433845973 34.7426462,0.820340331 33.1763269,1.38264603 C33.170515,1.38845798 33.164703,1.38264603 33.1588911,1.38845798 C32.8130804,1.50760285 32.4730816,1.64273058 32.1432537,1.77931129 L31.9790662,1.84760165 L31.9049639,1.87666138 C31.7974429,1.9275159 31.6899219,1.97255847 31.580948,2.0117891 C31.04189,2.19922434 30.627789,2.35905283 30.2877902,2.48836861 C29.4247163,2.82400845 29.243093,2.88648686 28.2783101,2.62494932 L28.2783101,2.61913738 C28.1649772,2.59153064 28.0342084,2.55665897 27.8918157,2.51742834 C27.8700209,2.51161639 27.8467732,2.4999925 27.8235254,2.49418056 C27.6942096,2.45494993 27.546005,2.4157193 27.3643817,2.36341179 L27.1769465,2.30674532 L27.1711345,2.30674532 C25.3272949,1.7676874 23.300379,1.24025337 21.2458564,0.871194852 L20.7358582,0.76948581 L20.7358582,0.786921646 C17.3867247,0.23042789 13.9751129,0.138889753 11.0749522,1.16615107 C4.41736897,3.52144187 -1.49047335,11.3370552 0.335930434,23.4723968 C0.558237339,24.9021354 0.761655422,26.3493097 0.978150382,27.808108 C2.50523899,38.2855922 4.07737017,49.1263231 8.12974898,58.9107329 L8.27068865,59.2463727 C9.27615518,61.6975606 10.9558073,65.796435 13.8908397,65.796435 L14.1291294,65.796435 L14.3441714,65.7048968 C17.0351021,64.5643026 18.0449275,61.9823459 18.7772326,60.0978227 C19.271248,58.8264597 19.7129558,57.5318489 20.1444928,56.2779217 C20.7067985,54.6258762 22.5855097,50.3352077 23.2379006,48.7964952 C23.3919171,48.5465815 23.9077273,47.6849607 24.0719147,47.435047 C25.4682346,45.3979602 29.2198452,40.9707109 34.021965,43.831641 C34.3910235,44.0524949 34.7310223,44.3082205 35.0492263,44.5799289 C35.1625592,44.681638 35.2700802,44.7964239 35.3848661,44.9039449 C35.5664894,45.0855682 35.7481127,45.2613795 35.9123001,45.4546267 C36.0590518,45.630438 36.2072564,45.8294971 36.349649,46.0271033 C36.4455461,46.1578721 36.5370843,46.2886408 36.6213575,46.4252215 C36.8087927,46.7143658 37.0412705,47.118296 37.2112699,47.4524829 C37.5004142,48.389659 38.9490415,52.3563116 39.1989552,53.3152826 C39.4706636,54.3759626 39.7598079,55.4773262 40.0954477,56.4987756 C41.5019385,60.8359397 43.3297952,65.3024196 46.2139731,65.5973758 C47.7396087,65.7557514 49.1417405,64.72849 50.3854967,62.5431986 C52.6666852,58.5474863 53.643092,54.1042542 54.5846272,49.8019617 L54.920267,48.2981209 C55.2893255,46.6344516 55.7034266,44.9213807 56.1233397,43.1661732 C56.2933391,42.4629279 56.4633385,41.7480586 56.6347909,41.0331893 L56.6565856,40.959087 C57.0140203,39.4552462 57.365643,37.9281576 57.7012828,36.3850862 C57.7012828,36.3792742 57.7070947,36.3734623 57.7070947,36.3676503 L57.8770941,35.5786788 L57.8770941,35.555431 L57.9511964,35.2154322 C57.9570084,35.2096202 57.9511964,35.2038083 57.9511964,35.1979963 C58.2694004,33.6709077 58.5585447,32.1336482 58.8084584,30.5891238 C58.8142703,30.5731409 58.8186293,30.567329 58.8244412,30.5498931 C58.8651248,30.2999795 58.9043555,30.0500659 58.9377741,29.7943403 C58.949398,29.7434857 58.95521,29.6926312 58.9668339,29.6417767 C58.9784578,29.5502386 58.9958936,29.4659654 59.0060645,29.3744272 C59.0060645,29.3686153 59.0002526,29.3628033 59.0060645,29.3526324 C59.2341834,27.7906722 59.4099947,26.2301649 59.5233276,24.6812815 C59.5233276,24.6580337 59.5349515,24.6464098 59.5349515,24.6304269 C59.5567463,24.3630775 59.5683702,24.1015399 59.585806,23.8414554 L59.591618,23.7847889 C59.5974299,23.665644 59.6032419,23.5508581 59.6076008,23.4317132 C59.6134128,23.4215423 59.6032419,23.4041065 59.6032419,23.3866707 C59.6817031,21.8029156 59.6758912,20.2307844 59.585806,18.681901" id="Fill-10"></path>
                                </g>
                            </g>
                        </g>
                    </g>
                </g>
            </g>
        </g>
    </g>
</svg>