<?xml version="1.0" encoding="UTF-8" standalone="no"?>
<svg width="66px" height="77px" viewBox="0 0 66 77" version="1.1" xmlns="http://www.w3.org/2000/svg" xmlns:xlink="http://www.w3.org/1999/xlink">
    <!-- Generator: Sketch 39.1 (31720) - http://www.bohemiancoding.com/sketch -->
    <title>Page 1</title>
    <desc>Created with Sketch.</desc>
    <defs>
        <polygon id="path-1" points="0 76.74947 66 76.74947 66 0 0 0"></polygon>
    </defs>
    <g id="Page-1" stroke="none" stroke-width="1" fill="none" fill-rule="evenodd">
        <g id="Main-page" transform="translate(-1073.000000, -1325.000000)">
            <g id="about-us" transform="translate(389.000000, 1130.000000)">
                <g id="benefits" transform="translate(683.000000, 68.000000)">
                    <g id="Group-2" transform="translate(1.000000, 127.000000)">
                        <g id="Page-1">
                            <path d="M64.898625,22.1831299 L44,22.1831299 L44,1.11054294 C44,0.443662597 43.56,0 42.898625,0 L23.101375,0 C22.44,0 22,0.443662597 22,1.11054294 L22,22.1831299 L1.101375,22.1831299 C0.44,22.1831299 0,22.6267925 0,23.2936728 L0,43.2557168 C0,43.9225971 0.44,44.3662597 1.101375,44.3662597 L22,44.3662597 L22,65.4388466 C22,66.105727 22.44,66.5493896 23.101375,66.5493896 L35.20275,66.5493896 L35.20275,64.3283037 L24.20275,64.3283037 L24.20275,43.2557168 C24.20275,42.5902229 23.761375,42.1451738 23.101375,42.1451738 L2.20275,42.1451738 L2.20275,24.4042157 L23.101375,24.4042157 C23.761375,24.4042157 24.20275,23.9591667 24.20275,23.2936728 L24.20275,2.22108588 L41.79725,2.22108588 L41.79725,23.2936728 C41.79725,23.9591667 42.238625,24.4042157 42.898625,24.4042157 L63.79725,24.4042157 L63.79725,43.2557168 L66,43.2557168 L66,23.2936728 C66,22.6267925 65.56,22.1831299 64.898625,22.1831299 L64.898625,22.1831299 Z" id="Fill-1" fill="#CFB8AC"></path>
                            <mask id="mask-2" fill="white">
                                <use xlink:href="#path-1"></use>
                            </mask>
                            <g id="Clip-4"></g>
                            <polygon id="Fill-3" fill="#932724" mask="url(#mask-2)" points="26.398625 6.6563254 28.601375 6.6563254 28.601375 4.43523953 26.398625 4.43523953"></polygon>
                            <polygon id="Fill-5" fill="#F3D8C7" mask="url(#mask-2)" points="4.398625 28.8394553 6.601375 28.8394553 6.601375 26.6183694 4.398625 26.6183694"></polygon>
                            <polygon id="Fill-6" fill="#F3D8C7" mask="url(#mask-2)" points="59.398625 28.8394553 61.601375 28.8394553 61.601375 26.6183694 59.398625 26.6183694"></polygon>
                            <polygon id="Fill-7" fill="#F3D8C7" mask="url(#mask-2)" points="4.398625 39.9310202 6.601375 39.9310202 6.601375 37.7099343 4.398625 37.7099343"></polygon>
                            <polygon id="Fill-8" fill="#932724" mask="url(#mask-2)" points="26.398625 62.11415 28.601375 62.11415 28.601375 59.8930642 26.398625 59.8930642"></polygon>
                            <polygon id="Fill-9" fill="#F3D8C7" mask="url(#mask-2)" points="37.398625 6.6563254 39.601375 6.6563254 39.601375 4.43523953 37.398625 4.43523953"></polygon>
                            <polygon id="Fill-10" fill="#932724" mask="url(#mask-2)" points="46.20275 19.9634304 48.4 19.9634304 48.4 17.7478903 46.20275 17.7478903"></polygon>
                            <polygon id="Fill-11" fill="#EFE5DC" mask="url(#mask-2)" points="50.601375 19.9634304 52.798625 19.9634304 52.798625 17.7478903 50.601375 17.7478903"></polygon>
                            <polygon id="Fill-12" fill="#EFE5DC" mask="url(#mask-2)" points="55 19.9634304 57.20275 19.9634304 57.20275 17.7478903 55 17.7478903"></polygon>
                            <polygon id="Fill-13" fill="#932724" mask="url(#mask-2)" points="17.601375 19.9634304 19.798625 19.9634304 19.798625 17.7478903 17.601375 17.7478903"></polygon>
                            <polygon id="Fill-14" fill="#932724" mask="url(#mask-2)" points="13.20275 19.9634304 15.4 19.9634304 15.4 17.7478903 13.20275 17.7478903"></polygon>
                            <polygon id="Fill-15" fill="#EFE5DC" mask="url(#mask-2)" points="8.79725 19.9634304 11 19.9634304 11 17.7478903 8.79725 17.7478903"></polygon>
                            <polygon id="Fill-16" fill="#EFE5DC" mask="url(#mask-2)" points="17.601375 48.8028857 19.798625 48.8028857 19.798625 46.5873456 17.601375 46.5873456"></polygon>
                            <polygon id="Fill-17" fill="#932724" mask="url(#mask-2)" points="13.20275 48.8028857 15.4 48.8028857 15.4 46.5873456 13.20275 46.5873456"></polygon>
                            <polygon id="Fill-18" fill="#EFE5DC" mask="url(#mask-2)" points="17.601375 53.2381252 19.798625 53.2381252 19.798625 51.0225851 17.601375 51.0225851"></polygon>
                            <polygon id="Fill-19" fill="#932724" mask="url(#mask-2)" points="17.601375 57.6789105 19.798625 57.6789105 19.798625 55.4578246 17.601375 55.4578246"></polygon>
                            <polygon id="Fill-20" fill="#932724" mask="url(#mask-2)" points="13.20275 53.2381252 15.4 53.2381252 15.4 51.0225851 13.20275 51.0225851"></polygon>
                            <polygon id="Fill-21" fill="#EFE5DC" mask="url(#mask-2)" points="8.79725 48.8028857 11 48.8028857 11 46.5873456 8.79725 46.5873456"></polygon>
                            <polygon id="Fill-22" fill="#EFE5DC" mask="url(#mask-2)" points="17.601375 15.5281909 19.798625 15.5281909 19.798625 13.3126508 17.601375 13.3126508"></polygon>
                            <polygon id="Fill-23" fill="#932724" mask="url(#mask-2)" points="17.601375 11.0915649 19.798625 11.0915649 19.798625 8.87047905 17.601375 8.87047905"></polygon>
                            <polygon id="Fill-24" fill="#EFE5DC" mask="url(#mask-2)" points="13.20275 15.5281909 15.4 15.5281909 15.4 13.3126508 13.20275 13.3126508"></polygon>
                            <polygon id="Fill-25" fill="#932724" mask="url(#mask-2)" points="50.601375 15.5281909 52.798625 15.5281909 52.798625 13.3126508 50.601375 13.3126508"></polygon>
                            <polygon id="Fill-26" fill="#EFE5DC" mask="url(#mask-2)" points="46.20275 15.5281909 48.4 15.5281909 48.4 13.3126508 46.20275 13.3126508"></polygon>
                            <polygon id="Fill-27" fill="#932724" mask="url(#mask-2)" points="46.20275 11.0915649 48.4 11.0915649 48.4 8.87047905 46.20275 8.87047905"></polygon>
                            <path d="M43.3398118,56.3438464 C41.8600592,56.3438464 40.4947701,55.6638629 39.5983682,54.5041363 C39.8852168,54.1286853 40.0562227,53.6572856 40.0562227,53.1455598 L40.0562227,51.5561503 C40.0562227,51.0847507 40.1555165,50.6203038 40.3458295,50.1947927 L43.5025433,50.1947927 C43.7687057,50.1947927 44.0059074,50.0279255 44.0983057,49.7762343 C44.2568999,49.3437703 44.3768799,48.8974007 44.4554874,48.4426878 C45.726999,48.9085252 46.6220219,50.1502948 46.6220219,51.5561503 L46.6220219,53.1455598 C46.6220219,53.6572856 46.7944068,54.1286853 47.0812555,54.5041363 C46.1848536,55.6652534 44.8195645,56.3438464 43.3398118,56.3438464 L43.3398118,56.3438464 Z M43.3798051,59.3710943 L43.2846486,59.3710943 C42.5675271,59.3710943 41.8628173,58.4922607 41.8628173,57.5967405 C41.8628173,57.5425086 41.8559219,57.4882768 41.8435102,57.4354356 C42.3248091,57.5591954 42.8267941,57.6245517 43.3398118,57.6245517 C43.8252479,57.6245517 44.3010305,57.5661482 44.7602641,57.4549034 C44.7161335,58.3851877 44.0183191,59.3710943 43.3798051,59.3710943 L43.3798051,59.3710943 Z M39.4135715,49.2297444 C39.0039848,49.9319769 38.7874693,50.7371108 38.7874693,51.5561503 L38.7874693,53.1469503 C38.7874693,53.4500923 38.645424,53.7198608 38.4261503,53.8936807 C38.4068432,53.9061958 38.3889152,53.9201014 38.3709872,53.9340069 C38.2206674,54.0369083 38.0386289,54.0967024 37.8441786,54.0967024 C37.3242655,54.0967024 36.9022671,53.6698007 36.9022671,53.1469503 L36.9022671,51.5561503 C36.9022671,48.003271 39.6618059,45.1526242 43.1839758,45.0664095 C43.3163675,45.0636284 43.4515173,45.0636284 43.5976998,45.0705812 C47.0633274,45.2082466 49.7773565,48.0575028 49.7773565,51.5561503 L49.7773565,53.1455598 C49.7773565,53.6698007 49.3553581,54.0967024 48.835445,54.0967024 C48.6396157,54.0967024 48.4575771,54.0369083 48.3072574,53.9340069 C48.2907085,53.9201014 48.2727804,53.9061958 48.2534733,53.8936807 C48.0341996,53.7198608 47.8921544,53.4500923 47.8921544,53.1455598 L47.8921544,51.5561503 C47.8921544,49.2964913 46.2234678,47.3441458 44.0100446,47.0145833 C43.8362806,46.9881626 43.6597584,47.0368322 43.5218504,47.148077 C43.3839424,47.2579312 43.2984394,47.4206266 43.2846486,47.5972277 C43.2501716,48.0449878 43.1688059,48.4857951 43.0446887,48.9140874 L39.9610662,48.9140874 C39.7362762,48.9140874 39.5280351,49.0336755 39.4135715,49.2297444 L39.4135715,49.2297444 Z M46.8854261,58.1724321 C47.0716019,57.8720712 46.9792035,57.4771524 46.6813223,57.2908174 C46.4882511,57.1698387 46.2882845,57.0599845 46.0828016,56.9626454 C46.866119,56.5579926 47.5611752,55.9781293 48.1114281,55.2550384 C48.3375972,55.3343003 48.5816943,55.3760171 48.835445,55.3760171 C50.0545516,55.3760171 51.0474891,54.3762048 51.0474891,53.1455598 L51.0474891,51.5561503 C51.0474891,49.5342769 50.2807207,47.6194766 48.8906082,46.1649515 C47.5032539,44.7132074 45.6414961,43.8705284 43.6473466,43.7912665 L43.6473466,43.7912665 C43.4735826,43.7843137 43.3122302,43.7829232 43.1536361,43.7870948 C41.1691402,43.8343739 39.2963497,44.64507 37.8814138,46.0676123 C36.4306218,47.5263091 35.6321346,49.4758734 35.6321346,51.5561503 L35.6321346,53.1469503 C35.6321346,54.3762048 36.6250721,55.3774076 37.8441786,55.3774076 C38.0979293,55.3774076 38.3406474,55.3343003 38.5681956,55.2550384 C39.1749907,56.0518289 39.9555499,56.673409 40.838161,57.0794524 C38.8798676,58.1182002 37.6690355,60.1289492 37.6690355,62.3552348 L37.6690355,67.5934722 C37.6690355,67.8103994 37.7779828,68.0134211 37.9586423,68.1302281 L43.7163006,71.8986441 C43.8224898,71.9681721 43.9424697,72.0015455 44.0610706,72.0015455 C44.2693116,72.0015455 44.4720364,71.8986441 44.5947745,71.709528 C44.7850875,71.4133389 44.7009636,71.0170294 44.4072196,70.8251322 L38.937789,67.2472229 L38.937789,62.3552348 C38.937789,60.874289 39.6218126,59.5143219 40.7678279,58.6368789 C41.1608657,59.7868716 42.168973,60.650409 43.2846486,60.650409 L43.3798051,60.650409 C44.5920163,60.650409 45.5587513,59.5449142 45.899384,58.3100974 C45.9366192,58.3323464 45.9738543,58.3545954 46.0110895,58.3782349 C46.3089707,58.5645698 46.7006294,58.4727929 46.8854261,58.1724321 L46.8854261,58.1724321 Z M51.4446641,75.3514032 L47.3446597,72.7190742 L47.3446597,70.737527 C47.3446597,69.3288903 48.0493695,68.0440134 49.1912476,67.2875491 C49.5884226,68.1997561 50.5234387,68.7657137 51.4101871,68.7657137 L51.4874156,68.7657137 C52.445876,68.7657137 53.2926311,68.1371809 53.6580872,67.2639096 C54.8165143,68.0175928 55.5350149,69.3122036 55.5419103,70.7403081 L55.5515639,72.7357609 L51.4446641,75.3514032 Z M52.5699932,66.4712907 C52.4913857,67.0775746 51.9645772,67.4863991 51.4874156,67.4863991 L51.4101871,67.4863991 C50.9054439,67.4863991 50.3455374,67.0553257 50.2724462,66.4601662 C50.6475559,66.5547243 51.0405937,66.6047844 51.443285,66.6047844 C51.8308064,66.6047844 52.2086743,66.5588959 52.5699932,66.4712907 L52.5699932,66.4712907 Z M47.8466448,61.6975002 C47.8466448,61.2817229 47.9169778,60.8826324 48.0452323,60.5099625 C49.0933329,60.8478684 50.2545182,61.02586 51.443285,61.02586 C52.6320518,61.02586 53.7946161,60.8478684 54.8413377,60.5099625 C54.9695922,60.8826324 55.0399252,61.2817229 55.0399252,61.6975002 C55.0399252,63.6971246 53.4264018,65.3240792 51.443285,65.3240792 C49.4601682,65.3240792 47.8466448,63.6971246 47.8466448,61.6975002 L47.8466448,61.6975002 Z M51.443285,58.0723118 C52.547928,58.0723118 53.5381073,58.5756943 54.1986865,59.3697037 C53.343657,59.6172233 52.4058827,59.7451548 51.443285,59.7451548 C50.4820664,59.7451548 49.5442921,59.6172233 48.6892626,59.3697037 C49.3484627,58.5756943 50.338642,58.0723118 51.443285,58.0723118 L51.443285,58.0723118 Z M53.9035634,65.9303631 C55.3419437,65.0765596 56.3100578,63.4982747 56.3100578,61.6975002 C56.3100578,60.8868041 56.1128494,60.1219964 55.7667003,59.4475751 C55.7542886,59.4197639 55.7404978,59.3919527 55.7239488,59.3669226 C54.9006382,57.8345261 53.2898729,56.7916066 51.443285,56.7916066 C49.5966971,56.7916066 47.9859318,57.8345261 47.1626212,59.3683132 C47.1474513,59.3933432 47.1322814,59.4197639 47.1212488,59.4461845 C46.7737206,60.1219964 46.5778913,60.8868041 46.5778913,61.6975002 C46.5778913,63.4982747 47.5446263,65.075169 48.9830066,65.9289725 C47.2026145,66.8564757 46.0759062,68.6989669 46.0759062,70.737527 L46.0759062,73.0708857 C46.0759062,73.2905941 46.1862326,73.4936158 46.3696503,73.6104228 L51.1026523,76.6501857 C51.2074623,76.7169325 51.3246841,76.7489154 51.443285,76.7489154 C51.5618859,76.7489154 51.6791077,76.7169325 51.7825386,76.6501857 L56.5279524,73.6285 C56.7127491,73.5103025 56.8244546,73.3044997 56.8230755,73.0847913 L56.8120428,70.7333553 C56.8023893,68.6906235 55.675681,66.8550851 53.9035634,65.9303631 L53.9035634,65.9303631 Z M63.7253701,49.5551353 C63.118575,49.5551353 62.6248644,49.0573151 62.6248644,48.4454689 L62.6248644,48.0894857 C62.6248644,47.8558717 62.4993681,47.6417256 62.2966434,47.5290902 C62.0952977,47.4164549 61.8484424,47.4234077 61.6526131,47.5471675 C60.5355584,48.2535717 59.2033673,48.6276322 57.8008431,48.6276322 C57.2519693,48.6276322 56.7072328,48.5692287 56.1804243,48.4538123 C55.9928694,48.413486 55.7970401,48.4593745 55.6467204,48.5817437 C55.4977797,48.7027224 55.4108977,48.8862762 55.4108977,49.079564 L55.4108977,49.4675301 C55.4108977,50.0793762 54.9171871,50.5771965 54.310392,50.5771965 C54.2690196,50.5771965 54.2276472,50.5744154 54.1876539,50.5702437 C54.1780003,50.5688531 54.1683468,50.5674626 54.1586932,50.5674626 C54.1449024,50.5646815 54.1311116,50.5632909 54.1173208,50.5605098 C54.1145627,50.5048874 54.1145627,50.4506556 54.1145627,50.3964238 C54.1145627,49.5078563 54.3352154,48.6290228 54.7530766,47.8530906 C54.7544557,47.8503095 54.7572139,47.8475284 54.758593,47.8447472 C54.7627302,47.8350133 55.3364274,46.83242 56.1652544,46.1802476 C56.1680126,46.1788571 56.1693916,46.1774665 56.1693916,46.1760759 C57.1016496,45.4488134 58.2200834,45.065019 59.4019548,45.065019 C60.2018211,45.065019 60.9685895,45.2402294 61.6843319,45.5850882 C61.6967437,45.592041 61.7146717,45.6003843 61.738116,45.6101182 C62.4442049,45.9271658 62.9861833,46.4388917 63.3185415,46.8157333 C63.3226788,46.8199049 63.326816,46.8240766 63.3295742,46.8282483 C63.9294739,47.4984979 64.3473351,48.306413 64.5500599,49.1769032 C64.3418188,49.4132983 64.0411794,49.5551353 63.7253701,49.5551353 L63.7253701,49.5551353 Z M59.3095564,54.6404111 C57.3953936,54.6404111 55.6991254,53.4904185 54.9558014,51.7675154 C55.8370334,51.5158241 56.5100244,50.7621409 56.6534487,49.8346378 C57.0313165,49.8833074 57.4147007,49.9069469 57.8008431,49.9069469 C59.0916618,49.9069469 60.3355918,49.6343972 61.4485093,49.1115469 C61.7353579,50.1057969 62.6483087,50.83445 63.7253701,50.83445 C63.8039777,50.83445 63.8812061,50.8302783 63.9598137,50.821935 C63.5116127,52.9967699 61.5905545,54.6404111 59.3095564,54.6404111 L59.3095564,54.6404111 Z M59.2723213,57.3756415 L59.1771648,57.3756415 C58.4172918,57.3756415 57.7760197,56.6330828 57.7760197,55.7542492 C57.7760197,55.7431248 57.7760197,55.7320003 57.7746406,55.7208758 C58.2669721,55.8515884 58.7813689,55.9211164 59.3095564,55.9211164 C59.7605155,55.9211164 60.2018211,55.8696657 60.6238195,55.7737171 C60.5755517,56.638645 59.9646194,57.3756415 59.2723213,57.3756415 L59.2723213,57.3756415 Z M65.8519112,49.2033238 C65.6353957,48.0046616 65.0920382,46.8908235 64.2811393,45.9800071 C64.2797602,45.9786165 64.2783811,45.9772259 64.277002,45.9758354 C63.861899,45.5030452 63.1737382,44.8522634 62.2538919,44.4406578 L62.2332057,44.4309239 C61.3450783,44.0026316 60.3921341,43.7843137 59.4019548,43.7843137 C57.9359929,43.7843137 56.5500177,44.2612756 55.3929697,45.1637487 C55.3915906,45.1651392 55.3874534,45.1693109 55.3846952,45.1707015 C54.3903786,45.9535864 53.7339366,47.0715962 53.6525709,47.2148238 C53.6498128,47.2203861 53.6456755,47.2273389 53.6429174,47.2342917 C53.1202461,48.1979493 52.8444301,49.2923196 52.8444301,50.3964238 C52.8444301,50.6258661 52.8568418,50.8580895 52.8802862,51.0861413 C52.9023515,51.2988968 53.0292268,51.4866224 53.2167817,51.5867426 C53.3367616,51.6493178 53.4608788,51.7021591 53.5891332,51.7438759 C54.1007719,53.3193797 55.2164475,54.5806171 56.6341415,55.2898024 C56.0259673,55.6026783 55.4798517,56.017065 55.0082064,56.5232286 C54.7682465,56.7804821 54.7806582,57.1851349 55.035788,57.4284828 C55.2909178,57.6704401 55.69223,57.6579251 55.9321899,57.4006716 C56.1597381,57.1573237 56.4079724,56.9403964 56.6755139,56.7526709 C57.0602772,57.8512128 58.0504565,58.6549562 59.1771648,58.6549562 L59.2723213,58.6549562 C60.4004086,58.6549562 61.3892088,57.7928093 61.7505278,56.6275205 C63.0909934,57.4743712 63.948781,58.9831282 63.948781,60.5989583 L63.948781,67.2472229 L58.1759528,71.0239822 C57.8822088,71.2158794 57.7980849,71.6121889 57.9883979,71.908378 C58.109757,72.0974941 58.3138608,72.2003955 58.5221018,72.2003955 C58.6407027,72.2003955 58.7593036,72.1670221 58.8668718,72.0974941 L64.9293068,68.1302281 C65.1099663,68.0134211 65.2189136,67.8103994 65.2189136,67.5934722 L65.2189136,60.5989583 C65.2189136,58.3323464 63.9639509,56.3007391 61.9808341,55.2870213 C63.8577618,54.3414409 65.1871947,52.4335933 65.3168282,50.2114794 C65.4961086,50.0487839 65.6519446,49.8554962 65.7760618,49.6399595 C65.8519112,49.5078563 65.8781137,49.3535042 65.8519112,49.2033238 L65.8519112,49.2033238 Z" id="Fill-28" fill="#F3D8C7" mask="url(#mask-2)"></path>
                        </g>
                    </g>
                </g>
            </g>
        </g>
    </g>
</svg>