<?xml version="1.0" encoding="UTF-8" standalone="no"?>
<svg width="66px" height="81px" viewBox="0 0 66 81" version="1.1" xmlns="http://www.w3.org/2000/svg" xmlns:xlink="http://www.w3.org/1999/xlink">
    <!-- Generator: Sketch 39.1 (31720) - http://www.bohemiancoding.com/sketch -->
    <title>endodontia</title>
    <desc>Created with Sketch.</desc>
    <defs>
        <polygon id="path-1" points="65.4137334 30.1142125 65.4137334 60.1492303 0 60.1492303 0 0.0791947841 65.4137334 0.0791947841"></polygon>
    </defs>
    <g id="Page-1" stroke="none" stroke-width="1" fill="none" fill-rule="evenodd">
        <g id="Main-page" transform="translate(-1171.000000, -1967.000000)">
            <g id="teraphy" transform="translate(0.000000, 1714.000000)">
                <g id="profilactic-copy-2" transform="translate(1171.000000, 253.000000)">
                    <g id="endodontia">
                        <polygon id="Fill-1" fill="#932724" points="58.7228366 33.6860451 60.9517407 33.6860451 60.9517407 31.461114 58.7228366 31.461114"></polygon>
                        <polygon id="Fill-2" fill="#932724" points="53.5522811 24.4953255 55.7811853 24.4953255 55.7811853 22.2703945 53.5522811 22.2703945"></polygon>
                        <polygon id="Fill-3" fill="#F1D5C0" points="58.7186522 29.0927738 60.9475563 29.0927738 60.9475563 26.8622734 58.7186522 26.8622734"></polygon>
                        <polygon id="Fill-4" fill="#932724" points="63.1848293 33.6860451 65.4137334 33.6860451 65.4137334 31.461114 63.1848293 31.461114"></polygon>
                        <polygon id="Fill-5" fill="#F1D5C0" points="58.7158626 24.4953255 60.9503459 24.4953255 60.9503459 22.2703945 58.7158626 22.2703945"></polygon>
                        <polygon id="Fill-6" fill="#932724" points="63.1848293 29.232006 65.4137334 29.232006 65.4137334 27.007075 63.1848293 27.007075"></polygon>
                        <g id="Group-10" transform="translate(0.000000, 20.598701)">
                            <mask id="mask-2" fill="white">
                                <use xlink:href="#path-1"></use>
                            </mask>
                            <g id="Clip-8"></g>
                            <polygon id="Fill-7" fill="#F1D5C0" mask="url(#mask-2)" points="63.1848293 3.89662455 65.4137334 3.89662455 65.4137334 1.6716935 63.1848293 1.6716935"></polygon>
                            <path d="M55.981388,11.8272308 C55.0753123,8.39718649 52.4139753,5.11699845 48.4955104,2.59719241 C43.6668072,-0.508163279 36.8427951,-0.855052877 30.6848109,1.69805457 L30.473902,1.78408319 C30.3656725,1.83264773 30.2629932,1.87566204 30.1589263,1.91451368 C29.6441421,2.09350871 29.248688,2.24475257 28.9239993,2.36963283 C27.8985936,2.77063721 27.8985936,2.77063721 26.1211313,2.24475257 L25.720127,2.12542255 C24.8320896,1.87149937 23.866349,1.88121227 22.9935747,2.15872395 L22.310896,2.37518306 L20.2184579,19.9735862 L22.4246758,20.2344471 L24.3325686,4.16374583 C24.5934296,4.1581956 24.852903,4.18455921 25.1026635,4.26087492 L25.5855338,4.40240588 C27.7959143,5.05317076 28.1483542,5.05733344 29.7260081,4.43986995 C30.0298833,4.32053993 30.4031366,4.18039653 30.8915571,4.01250197 C31.042801,3.95283696 31.1995951,3.88762171 31.3577767,3.82240647 L31.5367718,3.74609076 C37.0328906,1.47465767 43.0757074,1.74661911 47.2980476,4.46207089 C50.7447426,6.68355188 53.0702905,9.4975203 53.8348351,12.3961298 C55.9924884,20.5383224 53.9971795,28.1796065 51.8894783,36.2732346 C51.3358425,38.3809358 50.7669435,40.5594025 50.278523,42.7489696 L49.9593846,44.196193 C49.0921606,48.1424091 48.1971854,52.2190557 46.1921635,55.7365162 C45.515035,56.9173284 44.8157056,57.6222081 44.3605864,57.5472799 C43.8513525,57.4973278 42.4471434,56.6897688 40.4032699,50.3805408 C40.0993946,49.4647523 39.8510217,48.4892987 39.5790602,47.4597304 C38.7076735,44.1101644 37.7266698,40.3651443 34.869687,37.9577305 C34.8585866,37.9480176 34.8474861,37.9369171 34.8363856,37.9313669 C34.4686826,37.6219414 34.0732285,37.3291666 33.6333725,37.0696931 C33.6278223,37.0696931 33.6278223,37.0641429 33.622272,37.0641429 C29.9591179,34.880126 25.899122,35.7626131 22.631422,39.3022746 C22.1208005,39.8600731 21.6282173,40.4733739 21.1564474,41.1616028 C19.2319039,43.9686335 18.1648715,47.1017403 17.1353032,50.1321679 C16.7342988,51.3074298 16.322194,52.5270936 15.8615246,53.6981929 C15.1510947,55.5200571 14.4850667,56.9825436 13.0753073,57.6985238 C11.8181794,57.3890983 10.4680851,54.115848 9.94775071,52.8420694 L9.81732022,52.5173807 C5.54641549,42.2133721 4.22962257,33.4329026 2.55483959,22.3157847 L2.52153819,22.0715745 C1.40039101,14.6467495 3.6718241,5.9523086 11.2756441,3.20910566 L11.3353091,3.19384252 C11.9638731,2.97599585 12.6798532,3.12862727 13.2265512,3.56709572 L11.4005243,18.9495681 L13.6067422,19.2104291 L15.5520991,2.81920175 L15.2426735,2.45011122 C14.1048757,1.09585422 12.2621981,0.547768659 10.6581806,1.07365329 L10.5763147,1.10140446 C4.2185221,3.35618685 -1.42329033,10.8198634 0.320870576,22.4018134 L0.359722211,22.6515739 C2.05531857,33.9143854 3.39431242,42.8141849 7.7637338,53.367954 L7.89832696,53.6926427 C8.85851737,56.029291 10.4625349,59.9477559 13.2654028,59.9477559 L13.4929624,59.9477559 L13.698321,59.8617273 C16.2680792,58.7711064 17.226882,56.3054151 17.9317617,54.5057519 C18.4035316,53.2860881 18.8253493,52.0511611 19.2374542,50.8523107 C19.7744393,49.280207 21.5685523,45.1785844 22.191566,43.7147103 C22.310896,43.4982512 22.430226,43.3026054 22.5440058,43.1069597 C22.6633358,42.9127015 22.7882161,42.722606 22.9130963,42.5269603 C22.93946,42.4950465 22.9672111,42.4520321 22.9880245,42.4131805 C24.1535735,40.7120339 27.0424701,37.2639513 30.8152414,38.2560556 C31.3577767,38.3975865 31.910025,38.6306963 32.4844741,38.9720357 C32.8424642,39.1829446 33.1671529,39.4271548 33.4710282,39.6866283 C33.5737075,39.7795947 33.6722241,39.882274 33.7749034,39.9849533 C33.9538985,40.1583981 34.1328935,40.3373932 34.2952378,40.5274887 C34.4353812,40.6953832 34.5658117,40.8743783 34.7017925,41.0589235 C34.7933713,41.1879665 34.891888,41.3183969 34.9779166,41.4543777 C35.1513614,41.7249515 35.3192559,42.0121761 35.47605,42.3216017 C35.498251,42.3590657 35.5204519,42.3979174 35.535715,42.4298312 C35.8118392,43.3248064 37.1952349,47.1128408 37.4338949,48.0230791 C37.6989186,49.0373843 37.9694925,50.0891535 38.2900185,51.0701573 C39.633175,55.2050813 41.3787234,59.4759861 44.1330269,59.7576604 C45.6066139,59.9047416 46.928957,58.9237378 48.116707,56.83685 C50.2951737,53.0266147 51.2276129,48.7765233 52.1267508,44.6735131 L52.4472768,43.2373902 C52.9301471,41.0852871 53.4879455,38.9234712 54.0346436,36.8365833 C56.1215314,28.8192709 58.2847349,20.5327722 55.981388,11.8272308" id="Fill-1" fill="#CFB8AC" mask="url(#mask-2)"></path>
                        </g>
                        <path d="M19.110117,5.56928922 L23.5721097,5.56928922 L23.5721097,2.23050033 L19.110117,2.23050033 L19.110117,5.56928922 Z M16.8756337,7.79978955 L20.0850882,7.79978955 L16.4557963,38.9850245 L13.5308826,38.9850245 L13.5308826,41.2155248 L16.1949671,41.2155248 L16.0638551,42.3238134 L13.2965548,42.3238134 L13.2965548,44.5543137 L15.8030258,44.5543137 L15.6774931,45.6695639 L13.062227,45.6695639 L13.062227,47.8931026 L15.4152691,47.8931026 L15.284157,49.0083528 L12.8278991,49.0083528 L12.8278991,51.2388531 L15.0289071,51.2388531 L14.8977951,52.3541033 L12.5935713,52.3541033 L12.5935713,54.577642 L14.6369659,54.577642 L14.1348348,58.9077644 C14.0636995,59.5162092 14.5002746,60.0717458 15.1153852,60.1413619 C15.1544398,60.1469312 15.1976789,60.1469312 15.240918,60.1469312 C15.8030258,60.1469312 16.2814452,59.7278422 16.3470012,59.1625593 L16.8812129,54.577642 L19.2900473,54.577642 L19.2900473,52.3541033 L17.1420421,52.3541033 L17.2731541,51.2388531 L19.5229804,51.2388531 L19.5229804,49.0083528 L17.5297989,49.0083528 L17.6609109,47.8931026 L19.7531238,47.8931026 L19.7531238,45.6695639 L17.9161609,45.6695639 L18.0472729,44.5543137 L19.9874516,44.5543137 L19.9874516,42.3238134 L18.3081021,42.3238134 L18.4392141,41.2155248 L20.2203847,41.2155248 L20.2203847,38.9850245 L18.6958589,38.9850245 L22.3349145,7.79978955 L25.8051983,7.79978955 L25.8051983,2.23050033 L26.9168607,2.23050033 L26.9168607,0 L15.758392,0 L15.758392,2.23050033 L16.8756337,2.23050033 L16.8756337,7.79978955 L16.8756337,7.79978955 Z" id="Fill-11" fill="#EED2BE"></path>
                    </g>
                </g>
            </g>
        </g>
    </g>
</svg>