<?xml version="1.0" encoding="UTF-8" standalone="no"?>
<svg width="31px" height="30px" viewBox="0 0 31 30" version="1.1" xmlns="http://www.w3.org/2000/svg" xmlns:xlink="http://www.w3.org/1999/xlink">
    <!-- Generator: Sketch 39.1 (31720) - http://www.bohemiancoding.com/sketch -->
    <title>фб</title>
    <desc>Created with Sketch.</desc>
    <defs></defs>
    <g id="Page-1" stroke="none" stroke-width="1" fill="none" fill-rule="evenodd">
        <g id="Main-page" transform="translate(-516.000000, -4768.000000)" fill="#932724">
            <g id="фб" transform="translate(516.000000, 4768.000000)">
                <path d="M0,1.99161703 C0,0.891677316 0.894337654,0 1.99821383,0 L29.0017862,0 C30.1053692,0 31,0.89784041 31,1.99161703 L31,28.008383 C31,29.1083227 30.1056623,30 29.0017862,30 L1.99821383,30 C0.894630804,30 0,29.1021596 0,28.008383 L0,1.99161703 Z M18.8708521,15.0988555 L16.4064244,15.0988555 L16.4064244,24.145204 L12.7168042,24.145204 L12.7168042,15.0988555 L10.8728582,15.0988555 L10.8728582,11.9779778 L12.7168042,11.9779778 L12.7168042,10.1115277 C12.7168042,8.77272845 13.0274772,7.76092408 13.6468788,7.07720749 C14.2662804,6.39327233 15.2890385,6.05163262 16.7162332,6.05163262 L19.1804449,6.05163262 L19.1804449,9.17163598 L17.6318328,9.17163598 C17.1061948,9.17163598 16.7702445,9.26453226 16.6250621,9.44988765 C16.4790155,9.63524304 16.4064244,9.95961497 16.4064244,10.425845 L16.4064244,11.9779778 L19.19492,11.9779778 L18.8708521,15.0988555 Z" id="Combined-Shape"></path>
            </g>
        </g>
    </g>
</svg>