<?xml version="1.0" encoding="UTF-8" standalone="no"?>
<svg width="31px" height="22px" viewBox="0 0 31 22" version="1.1" xmlns="http://www.w3.org/2000/svg" xmlns:xlink="http://www.w3.org/1999/xlink">
    <!-- Generator: Sketch 39.1 (31720) - http://www.bohemiancoding.com/sketch -->
    <title>menu</title>
    <desc>Created with Sketch.</desc>
    <defs>
        <polygon id="path-1" points="30.9931492 24 30.9931492 0.135257143 0 0.135257143 0 24"></polygon>
    </defs>
    <g id="Page-1" stroke="none" stroke-width="1" fill="none" fill-rule="evenodd">
        <g id="Tablet-main-page" transform="translate(-705.000000, -12.000000)">
            <g id="menu" transform="translate(705.000000, 11.000000)">
                <mask id="mask-2" fill="white">
                    <use xlink:href="#path-1"></use>
                </mask>
                <g id="Clip-2"></g>
                <path d="M29.8031602,4.52188571 C30.5183867,4.52188571 30.9953757,4.04445714 30.9953757,3.32857143 C30.9953757,2.61268571 30.5183867,2.13525714 29.8031602,2.13525714 L1.19221547,2.13525714 C0.47698895,2.13525714 0,2.61268571 0,3.32857143 C0,4.04445714 0.47698895,4.52188571 1.19221547,4.52188571 L29.8031602,4.52188571 Z" id="Fill-1" stroke="#932724" fill="#932724" mask="url(#mask-2)"></path>
                <path d="M29.8031602,10.8742286 L1.19221547,10.8742286 C0.47698895,10.8742286 0,11.3516571 0,12.0675429 C0,12.7834286 0.47698895,13.2608571 1.19221547,13.2608571 L29.8031602,13.2608571 C30.5183867,13.2608571 30.9953757,12.7834286 30.9953757,12.0675429 C30.9953757,11.3516571 30.5183867,10.8742286 29.8031602,10.8742286 L29.8031602,10.8742286 Z" id="Fill-3" stroke="#932724" fill="#932724" mask="url(#mask-2)"></path>
                <path d="M29.8031602,19.6133714 L1.19221547,19.6133714 C0.47698895,19.6133714 0,20.0908 0,20.8066857 C0,21.5225714 0.47698895,22 1.19221547,22 L29.8031602,22 C30.5183867,22 30.9953757,21.5225714 30.9953757,20.8066857 C30.9953757,20.0908 30.5183867,19.6133714 29.8031602,19.6133714 L29.8031602,19.6133714 Z" id="Fill-4" stroke="#932724" fill="#932724" mask="url(#mask-2)"></path>
            </g>
        </g>
    </g>
</svg>