<?xml version="1.0" encoding="UTF-8" standalone="no"?>
<svg width="60px" height="71px" viewBox="0 0 60 71" version="1.1" xmlns="http://www.w3.org/2000/svg" xmlns:xlink="http://www.w3.org/1999/xlink">
    <!-- Generator: Sketch 39.1 (31720) - http://www.bohemiancoding.com/sketch -->
    <title>Group 12</title>
    <desc>Created with Sketch.</desc>
    <defs>
        <polygon id="path-1" points="63 0.000285714285 3.75059172e-15 0.000285714285 0 51 63 51 63 0.000285714285"></polygon>
    </defs>
    <g id="Page-1" stroke="none" stroke-width="1" fill="none" fill-rule="evenodd">
        <g id="Main-page" transform="translate(-393.000000, -2232.000000)">
            <g id="teraphy" transform="translate(0.000000, 1714.000000)">
                <g id="profilactic-copy-3" transform="translate(389.000000, 506.000000)">
                    <g id="Group-12" transform="translate(2.119789, 13.000000)">
                        <g id="Page-1" transform="translate(0.000000, 19.000000)">
                            <mask id="mask-2" fill="white">
                                <use xlink:href="#path-1"></use>
                            </mask>
                            <g id="Clip-2"></g>
                            <path d="M6.66469257,0 L6.66469257,1.21857143 L8.88343098,1.21857143 L8.88343098,2.36142857 L3.16361506,2.36142857 L3.0830347,3.41714286 C2.94132442,5.24142857 2.97883596,5.58714286 3.21224113,7.12714286 L3.27753901,7.60142857 C3.49010443,9.01428571 3.690166,10.4371429 3.89161689,11.8714286 C5.35039919,22.1728571 6.85363961,32.8314286 10.7284433,42.4457143 L10.8645963,42.78 C11.8260033,45.1857143 13.4376104,49.22 16.2370831,49.22 L16.464931,49.22 L16.6719391,49.1314286 C19.2435639,48.01 20.2105282,45.47 20.9107437,43.6171429 C21.381722,42.3671429 21.8054635,41.09 22.2125332,39.8557143 C22.7501987,38.2385714 23.2767497,36.6642857 23.9005528,35.1571429 C26.1512454,30.45 27.4433098,26.32 31.2528155,26.32 C31.7029541,26.32 32.619903,26.1757143 33.1047744,26.26 C37.4338845,27.0128571 40.9738629,39.07 41.2934057,40.08 C42.6396534,44.3371429 44.3874135,48.7342857 47.1493746,49.0242857 C48.5984317,49.1757143 49.9446794,48.1657143 51.1381022,46.0171429 C53.3151612,42.0942857 54.2432246,37.73 55.1490589,33.5057143 L55.469991,32.0157143 C55.9201295,29.9457143 56.4411232,27.8471429 56.9454451,25.81 C58.7307168,18.6457143 60.5715611,11.2342857 59.8324447,3.39428571 L59.7351926,2.36142857 L54.4544007,2.36142857 L54.4544007,1.21857143 L56.6800857,1.21857143 L56.6800857,0" id="Stroke-1" stroke="#CFB8AC" stroke-width="2" mask="url(#mask-2)"></path>
                        </g>
                        <path d="M6.85433205,19.2057551 L6.85433205,18.1870816 L9.05818751,18.1870816 L9.05818751,17.0918367 L3.44711908,17.0918367 L3.54371888,15.9118163 C4.09985773,8.92604082 7.59815052,4.25244898 13.9378574,2.02504082 C19.1169868,0.203734694 25.9038128,1.68867347 29.4890454,2.73469388 C31.1657419,3.22146939 31.1657419,3.22693878 32.1841798,2.83040816 C32.5084792,2.70871429 32.9017783,2.55830612 33.4137573,2.38191837 C33.5158771,2.345 33.6179969,2.30261224 33.7256366,2.2547551 L33.9367762,2.16314286 C39.7148243,-0.202367347 46.66863,0.321326531 51.6504197,3.49357143 C55.5475317,5.97667347 58.1943662,9.20908163 59.0941243,12.5946327 C59.2238441,13.0704694 59.3370038,13.4013673 59.4336036,13.6844082 C59.6337032,14.2723673 59.8062029,14.7741837 59.9138427,15.8899388 L60.0270024,17.0918367 L54.3234742,17.0918367 L54.3234742,18.1870816 L56.5342296,18.1870816 L56.5342296,19.2057551" id="Stroke-11" stroke="#F1D5C0" stroke-width="2"></path>
                        <polygon id="Fill-7" fill="#EFE4D5" points="11.268943 22.1537551 52.1140987 22.1537551 52.1140987 19.930449 11.268943 19.930449"></polygon>
                        <polygon id="Fill-8" fill="#EFE4D5" points="11.268943 18.5617347 52.1140987 18.5617347 52.1140987 16.3356939 11.268943 16.3356939"></polygon>
                    </g>
                </g>
            </g>
        </g>
    </g>
</svg>