<?xml version="1.0" encoding="UTF-8" standalone="no"?>
<svg width="68px" height="64px" viewBox="0 0 68 64" version="1.1" xmlns="http://www.w3.org/2000/svg" xmlns:xlink="http://www.w3.org/1999/xlink">
    <!-- Generator: Sketch 39.1 (31720) - http://www.bohemiancoding.com/sketch -->
    <title>paradontology</title>
    <desc>Created with Sketch.</desc>
    <defs>
        <polygon id="path-1" points="64 63.9943736 0.08 63.9943736 0.08 0 64 0"></polygon>
    </defs>
    <g id="Page-1" stroke="none" stroke-width="1" fill="none" fill-rule="evenodd">
        <g id="Main-page" transform="translate(-392.000000, -2471.000000)">
            <g id="teraphy" transform="translate(0.000000, 1714.000000)">
                <g id="profilactic-copy-6" transform="translate(392.000000, 751.000000)">
                    <g id="paradontology" transform="translate(0.000000, 6.000000)">
                        <polygon id="Fill-1" fill="#932724" points="65.156 7.69160577 67.2866667 7.69160577 67.2866667 5.55845999 65.156 5.55845999"></polygon>
                        <polygon id="Fill-2" fill="#EBE1D6" points="60.7986667 7.69160577 62.9293333 7.69160577 62.9293333 5.55845999 60.7986667 5.55845999"></polygon>
                        <polygon id="Fill-3" fill="#932724" points="65.0306667 3.19971868 67.1613333 3.19971868 67.1613333 1.06657289 65.0306667 1.06657289"></polygon>
                        <polygon id="Fill-4" fill="#EBE1D6" points="65.156 11.9472183 67.2866667 11.9472183 67.2866667 9.81407248 65.156 9.81407248"></polygon>
                        <polygon id="Fill-5" fill="#932724" points="60.7986667 3.19971868 62.9293333 3.19971868 62.9293333 1.06657289 60.7986667 1.06657289"></polygon>
                        <g id="Group-9">
                            <mask id="mask-2" fill="white">
                                <use xlink:href="#path-1"></use>
                            </mask>
                            <g id="Clip-7"></g>
                            <polygon id="Fill-6" fill="#EBE1D6" mask="url(#mask-2)" points="56.5293333 3.19971868 58.66 3.19971868 58.66 1.06657289 56.5293333 1.06657289"></polygon>
                            <path d="M61.864,58.9792117 C61.864,60.6117757 60.5413333,61.9359814 58.912,61.9359814 L5.088,61.9359814 C3.45866667,61.9359814 2.136,60.6117757 2.136,58.9792117 L2.136,24.3149252 C2.136,22.6823612 3.45866667,21.3581556 5.088,21.3581556 L5.26,21.3581556 C5.27066667,21.4208952 5.28133333,21.4836347 5.28666667,21.550379 C5.484,22.87058 5.68266667,24.2001251 5.87466667,25.5350099 C7.276,35.1608636 8.71866667,45.1204385 12.4373333,54.1095523 L12.5626667,54.4125711 C13.4893333,56.6645216 15.0306667,60.4342361 17.724,60.4342361 L17.9426667,60.4342361 L18.14,60.3514732 C20.6093333,59.3035887 21.536,56.9301637 22.208,55.1988182 C22.6613333,54.0307941 23.068,52.8374071 23.464,51.6854016 C24.448,48.7806924 25.3853333,46.0321648 27.068,43.5666327 C28.344,41.699129 31.792,37.6317352 36.1933333,40.2547837 C39.136,42.0074874 40.0573333,45.5476016 40.948,48.9675763 C41.2026667,49.943377 41.464,50.9498801 41.7706667,51.8936436 C43.0626667,55.8716001 44.74,59.9803753 47.3906667,60.2526917 C48.7706667,60.3928546 50.0733333,59.4490911 51.2133333,57.4414245 C53.3066667,53.7758311 54.2026667,49.6870792 55.068,45.739825 L55.3746667,44.3582193 C55.7133333,42.8311112 56.0933333,41.2559473 56.484,39.6447414 C57.8746667,33.8566812 59.3746667,27.5733788 59.672,21.4676161 C60.932,21.8066768 61.864,22.9480033 61.864,24.3149252 L61.864,58.9792117 L61.864,58.9792117 Z M9.724,7.99328972 C9.79733333,8.00930834 9.864,8.03467115 9.94266667,8.03467115 C9.97333333,8.03467115 10.0053333,8.03467115 10.036,8.02933161 C10.6253333,7.97727111 11.0573333,7.4620056 11.0053333,6.87198655 C10.9893333,6.69978643 10.9786667,6.53292583 10.9693333,6.36072571 C11.8853333,5.33419935 12.9786667,4.45317544 14.2653333,3.775054 C14.38,3.71231441 14.4946667,3.64957483 14.6093333,3.59217479 C15.0106667,3.39995139 15.4213333,3.22241172 15.8546667,3.06623021 C16.7133333,2.76321138 17.6613333,2.59101125 18.6506667,2.51892747 C18.7706667,2.50824839 18.896,2.50290886 19.016,2.49756932 C19.2813333,2.48689024 19.5466667,2.47087162 19.8173333,2.47087162 C22.912,2.47087162 26.3026667,3.2851513 29.0053333,4.06205421 L29.74,4.27563577 C29.7453333,4.28097531 29.7493333,4.28097531 29.7546667,4.28097531 C31.6973333,4.84429666 32.0733333,4.83895712 33.5466667,4.26495669 C33.8333333,4.1501566 34.1933333,4.00999371 34.6613333,3.84847266 C34.76,3.81643542 34.86,3.76971446 34.9586667,3.72833303 C35.0053333,3.70697488 35.0573333,3.69095626 35.104,3.67093299 L35.328,3.57615617 C38.5266667,2.26262961 41.9066667,1.85548977 44.9786667,2.31469011 C45.1253333,2.33604827 45.276,2.35607154 45.4213333,2.38276923 C47.2453333,2.70581133 48.9533333,3.33721181 50.4266667,4.28631485 C51.5733333,5.02183633 52.584,5.83478112 53.4533333,6.69044223 C53.464,6.69978643 53.464,6.7104655 53.4693333,6.71580504 C53.4786667,6.72114458 53.484,6.73182366 53.4946667,6.7371632 C53.4946667,6.75184693 53.4893333,6.76252601 53.4893333,6.77854462 C53.4426667,7.36722879 53.88,7.87848964 54.464,7.93055014 L54.552,7.93055014 C54.568,7.93055014 54.5786667,7.9252106 54.588,7.9252106 C55.6253333,9.19735574 56.3493333,10.5482591 56.708,11.915181 C58.932,20.3249548 56.5266667,30.3165669 54.4066667,39.1388201 C54.016,40.760705 53.636,42.3505527 53.292,43.8843353 L52.984,45.27662 C52.1506667,49.0730322 51.292,52.9989282 49.364,56.3775214 C48.7133333,57.5148432 48.052,58.1555878 47.604,58.1248855 C47.1146667,58.072825 45.7653333,57.3012616 43.7973333,51.2262012 C43.5106667,50.3451773 43.2706667,49.410758 43.0106667,48.4202736 C42.0573333,44.7653592 40.9733333,40.6152026 37.2866667,38.4139777 C33.2133333,35.989827 28.6253333,37.5022514 25.3066667,42.3558923 C23.4586667,45.0630385 22.432,48.0758733 21.4426667,50.9912615 C21.0573333,52.1232438 20.656,53.2912679 20.2186667,54.4165757 C19.536,56.1692794 18.896,57.5829223 17.5413333,58.2703879 C16.328,57.968704 15.036,54.818376 14.536,53.5982914 L14.412,53.2859284 C10.792,44.5410986 9.364,34.7176819 7.984,25.221312 C7.792,23.8810877 7.59866667,22.546203 7.396,21.2273369 L7.396,21.2219973 C7.344,20.8775971 7.30666667,20.5291922 7.27066667,20.1741128 L7.224,19.6895497 C6.88533333,15.6114768 7.60933333,11.3051387 9.724,7.99328972 L9.724,7.99328972 Z M59.724,19.303768 C59.7186667,16.5912822 59.448,13.9268523 58.7706667,11.3772225 C58.2706667,9.47901642 57.1973333,7.63420573 55.6773333,5.94958121 L55.6826667,5.93356259 L55.4946667,5.74133919 C54.4066667,4.56797552 53.0986667,3.46669563 51.584,2.49222978 C51.5266667,2.45618789 51.4693333,2.4294902 51.416,2.39344831 C51.4066667,2.38810877 51.4013333,2.38276923 51.396,2.37742969 C51.3066667,2.32002965 51.208,2.27330868 51.12,2.22124818 C50.9266667,2.10644809 50.7293333,1.99164801 50.5306667,1.887527 C50.4786667,1.85548977 50.432,1.82478742 50.38,1.79808972 C50.364,1.79408507 50.3493333,1.79408507 50.3333333,1.78340599 C49.0053333,1.11062409 47.5573333,0.620721396 46.036,0.328381642 C46.0266667,0.328381642 46.016,0.317702564 46.0053333,0.317702564 C45.9533333,0.307023486 45.9066667,0.301683947 45.8546667,0.292339754 C45.6306667,0.249623443 45.4066667,0.218921095 45.1826667,0.186883861 C45.0786667,0.172200129 44.9733333,0.150841974 44.8693333,0.140162896 C44.86,0.134823357 44.8546667,0.140162896 44.844,0.140162896 C41.6146667,-0.256297867 38.136,0.182879207 34.8333333,1.48038716 C34.8226667,1.4857267 34.8066667,1.4857267 34.7973333,1.4857267 L34.5466667,1.58984771 C34.5213333,1.60052678 34.4946667,1.61120586 34.464,1.62188494 L34.26,1.70998733 C34.156,1.7567083 34.0573333,1.79808972 33.9586667,1.83546649 C33.9173333,1.85148511 33.8853333,1.8608293 33.844,1.87684792 L33.844,1.87150838 C33.844,1.87684792 33.8386667,1.87684792 33.8386667,1.87684792 C33.4066667,2.03302943 33.0573333,2.16384814 32.7706667,2.27330868 C31.8226667,2.64307175 31.776,2.65375083 30.328,2.22658772 L30.2653333,2.20522956 C30.2293333,2.19455048 30.2026667,2.18921095 30.1666667,2.17986675 C26.896,1.2147451 23,0.254962982 19.4013333,0.33906072 L19.396,0.33906072 C19.3746667,0.33906072 19.36,0.344400259 19.3386667,0.344400259 C19.0106667,0.349739797 18.6933333,0.369763068 18.3693333,0.396460763 C18.328,0.401800302 18.2866667,0.401800302 18.2453333,0.401800302 C18.24,0.401800302 18.2346667,0.405804956 18.224,0.405804956 C17.1506667,0.50592131 16.1146667,0.708823788 15.14,1.05322405 C14.6933333,1.2147451 14.2506667,1.4069685 13.812,1.62188494 C13.7813333,1.63122913 13.7546667,1.63122913 13.7293333,1.64190821 C13.3746667,1.81410834 13.0266667,2.00232708 12.6933333,2.19989002 C12.6453333,2.22658772 12.6146667,2.27330868 12.5733333,2.30401103 C11.3906667,3.04487205 10.276,3.98329601 9.28133333,5.1206178 C9.23466667,5.16199922 9.18266667,5.18869692 9.14,5.23541788 L8.80266667,5.6358833 L8.80266667,5.67859961 C6.26533333,8.8689741 4.66666667,13.4422892 5.04666667,19.2250098 C2.26,19.2463679 0,21.5196766 0,24.3149252 L0,58.9792117 C0,61.7904789 2.28133333,64.0744667 5.088,64.0744667 L58.912,64.0744667 C61.7186667,64.0744667 64,61.7904789 64,58.9792117 L64,24.3149252 C64,21.7799791 62.14,19.6948892 59.724,19.303768 L59.724,19.303768 Z" id="Fill-8" fill="#C6AFA1" mask="url(#mask-2)"></path>
                        </g>
                        <path d="M57.8493333,53.3953889 C57.8493333,53.9840731 57.3693333,54.4646316 56.7813333,54.4646316 C56.1933333,54.4646316 55.7133333,53.9840731 55.7133333,53.3953889 C55.7133333,52.8053699 56.1933333,52.3261463 56.7813333,52.3261463 C57.3693333,52.3261463 57.8493333,52.8053699 57.8493333,53.3953889" id="Fill-10" fill="#EED2BE"></path>
                        <path d="M61.0466667,42.7163111 C61.0466667,43.3049953 60.568,43.7855538 59.9786667,43.7855538 C59.3906667,43.7855538 58.912,43.3049953 58.912,42.7163111 C58.912,42.1262921 59.3906667,41.6470685 59.9786667,41.6470685 C60.568,41.6470685 61.0466667,42.1262921 61.0466667,42.7163111" id="Fill-11" fill="#EED2BE"></path>
                        <path d="M38.6453333,46.9866074 C38.6453333,47.5752915 38.1666667,48.05585 37.5786667,48.05585 C36.9893333,48.05585 36.516,47.5752915 36.516,46.9866074 C36.516,46.3979232 36.9893333,45.9173647 37.5786667,45.9173647 C38.1666667,45.9173647 38.6453333,46.3979232 38.6453333,46.9866074" id="Fill-12" fill="#EED2BE"></path>
                        <path d="M41.8493333,58.7349278 C41.8493333,59.323612 41.3693333,59.8041705 40.7813333,59.8041705 C40.1933333,59.8041705 39.7133333,59.323612 39.7133333,58.7349278 C39.7133333,58.1449088 40.1933333,57.6656852 40.7813333,57.6656852 C41.3693333,57.6656852 41.8493333,58.1449088 41.8493333,58.7349278" id="Fill-13" fill="#EED2BE"></path>
                        <path d="M7.71333333,55.5271998 C7.71333333,56.1225584 7.23466667,56.5964425 6.64533333,56.5964425 C6.05733333,56.5964425 5.57866667,56.1225584 5.57866667,55.5271998 C5.57866667,54.9385157 6.05733333,54.4646316 6.64533333,54.4646316 C7.23466667,54.4646316 7.71333333,54.9385157 7.71333333,55.5271998" id="Fill-14" fill="#EED2BE"></path>
                        <path d="M5.57866667,38.4460149 C5.57866667,39.0346991 5.104,39.5085832 4.516,39.5085832 C3.92133333,39.5085832 3.448,39.0346991 3.448,38.4460149 C3.448,37.8506563 3.92133333,37.3767722 4.516,37.3767722 C5.104,37.3767722 5.57866667,37.8506563 5.57866667,38.4460149" id="Fill-15" fill="#EED2BE"></path>
                        <path d="M29.5786667,58.7349278 C28.1093333,58.7349278 26.912,57.5348665 26.912,56.0651584 C26.912,54.5887759 28.1093333,53.3953889 29.5786667,53.3953889 C31.052,53.3953889 32.2453333,54.5887759 32.2453333,56.0651584 C32.2453333,57.5348665 31.052,58.7349278 29.5786667,58.7349278 L29.5786667,58.7349278 Z M29.5786667,51.2569036 C26.932,51.2569036 24.7813333,53.4154122 24.7813333,56.0651584 C24.7813333,58.7135697 26.932,60.8667387 29.5786667,60.8667387 C32.224,60.8667387 34.38,58.7135697 34.38,56.0651584 C34.38,53.4154122 32.224,51.2569036 29.5786667,51.2569036 L29.5786667,51.2569036 Z" id="Fill-16" fill="#EED2BE"></path>
                        <path d="M37.088,26.217136 C37.156,26.217136 37.2293333,26.2131313 37.2973333,26.1971127 C37.672,26.123694 38.036,26.0409312 38.4013333,25.9514939 C38.9733333,25.811331 39.3226667,25.231991 39.1826667,24.6579906 C39.036,24.0853251 38.4586667,23.7409248 37.8906667,23.8810877 C37.5573333,23.9651854 37.2186667,24.0386041 36.88,24.1053483 C36.3026667,24.2201484 35.9266667,24.7834698 36.0466667,25.3628097 C36.1453333,25.868731 36.588,26.217136 37.088,26.217136" id="Fill-17" fill="#EED2BE"></path>
                        <path d="M42.2293333,24.5698882 C42.3746667,24.5698882 42.5266667,24.5445254 42.6666667,24.4764463 C43.0106667,24.3202648 43.3546667,24.1574088 43.688,23.9865436 C44.2133333,23.7142271 44.4213333,23.0734824 44.1506667,22.546203 C43.88,22.0202584 43.24,21.8173559 42.7186667,22.082998 C42.412,22.2391795 42.104,22.3846819 41.7866667,22.5315192 C41.2506667,22.7704636 41.016,23.4018641 41.2546667,23.9438273 C41.432,24.3349485 41.8226667,24.5698882 42.2293333,24.5698882" id="Fill-18" fill="#EED2BE"></path>
                        <path d="M52.9173333,13.1819866 C53.0466667,13.2340471 53.1773333,13.2540704 53.3066667,13.2540704 C53.7346667,13.2540704 54.136,12.9991074 54.3026667,12.5826234 C54.4426667,12.2275441 54.5733333,11.8671252 54.6933333,11.5080412 C54.8746667,10.9447198 54.5733333,10.3400171 54.0106667,10.1571379 C53.4533333,9.97425865 52.8493333,10.2719379 52.6666667,10.8352593 C52.5573333,11.1583014 52.4426667,11.476004 52.3173333,11.7950414 C52.0986667,12.3423441 52.3693333,12.9630655 52.9173333,13.1819866" id="Fill-19" fill="#EED2BE"></path>
                        <path d="M50.6453333,17.9475251 C50.9693333,17.9475251 51.2866667,17.8020227 51.4946667,17.5257015 C51.724,17.2226827 51.948,16.9156592 52.1613333,16.6019613 C52.4946667,16.1173981 52.3693333,15.4499558 51.8853333,15.1162346 C51.396,14.7825134 50.7346667,14.9079926 50.4013333,15.3978953 C50.208,15.679556 50.0053333,15.9558771 49.7973333,16.2268587 C49.4426667,16.6967381 49.5306667,17.36952 50,17.7232645 C50.1933333,17.8741064 50.4213333,17.9475251 50.6453333,17.9475251" id="Fill-20" fill="#EED2BE"></path>
                        <path d="M46.8493333,21.7799791 C47.0786667,21.7799791 47.3066667,21.7078954 47.5053333,21.550379 C47.8026667,21.3167741 48.0986667,21.0764949 48.38,20.8308761 C48.828,20.4450944 48.8746667,19.766973 48.4893333,19.3237913 C48.104,18.87527 47.432,18.828549 46.984,19.2143307 C46.724,19.4385913 46.4586667,19.6575124 46.188,19.8724289 C45.724,20.2315129 45.6453333,20.9042948 46.0053333,21.3688346 C46.2186667,21.6398162 46.5306667,21.7799791 46.8493333,21.7799791" id="Fill-21" fill="#EED2BE"></path>
                        <path d="M31.688,26.6923549 C31.8746667,26.6923549 32.0626667,26.6976945 32.2453333,26.6976945 C32.4373333,26.6976945 32.6306667,26.6923549 32.8173333,26.6923549 C33.412,26.6763363 33.8746667,26.1864336 33.864,25.5977495 C33.8493333,25.0077304 33.3493333,24.5391859 32.7706667,24.5538696 C32.432,24.5645487 32.0826667,24.5645487 31.74,24.5538696 C31.156,24.5391859 30.6613333,25.0077304 30.6506667,25.5977495 C30.636,26.1864336 31.0986667,26.6763363 31.688,26.6923549" id="Fill-22" fill="#EED2BE"></path>
                        <path d="M12.344,16.628659 C12.5573333,16.941022 12.7813333,17.2493804 13.0106667,17.5457248 C13.2186667,17.8220459 13.536,17.9688833 13.8546667,17.9688833 C14.0826667,17.9688833 14.312,17.8954646 14.5053333,17.7499622 C14.9733333,17.3895433 15.0626667,16.7167614 14.7026667,16.2482168 C14.4946667,15.9812399 14.2973333,15.7049188 14.104,15.4232581 C13.7706667,14.9333554 13.104,14.8132158 12.62,15.1429323 C12.136,15.4766535 12.0106667,16.1387563 12.344,16.628659" id="Fill-23" fill="#EED2BE"></path>
                        <path d="M10.1973333,12.6079862 C10.364,13.0258051 10.7653333,13.2807681 11.1933333,13.2807681 C11.3226667,13.2807681 11.4533333,13.25941 11.584,13.2073495 C12.1306667,12.9884284 12.4013333,12.367707 12.1826667,11.8204042 C12.0573333,11.5027017 11.9426667,11.1849991 11.8333333,10.861957 C11.6453333,10.2986356 11.0413333,10.0009563 10.484,10.1838356 C9.92133333,10.3707194 9.62533333,10.9754222 9.80666667,11.533404 C9.92666667,11.8938229 10.0573333,12.2529069 10.1973333,12.6079862" id="Fill-24" fill="#EED2BE"></path>
                        <path d="M20.8226667,23.9958878 C21.156,24.1627484 21.5,24.329609 21.844,24.4817858 C21.984,24.5485301 22.136,24.5805673 22.2813333,24.5805673 C22.688,24.5805673 23.0733333,24.3456276 23.2546667,23.9491668 C23.4946667,23.4125432 23.2546667,22.7811427 22.7186667,22.5368588 C22.4066667,22.395361 22.0933333,22.244519 21.7866667,22.0883375 C21.26,21.8213606 20.62,22.036277 20.3546667,22.5568821 C20.088,23.0841615 20.2973333,23.7249062 20.8226667,23.9958878" id="Fill-25" fill="#EED2BE"></path>
                        <path d="M26.1093333,25.9568334 C26.4733333,26.0462707 26.8386667,26.1290336 27.208,26.2024522 C27.2813333,26.217136 27.3546667,26.2224755 27.4213333,26.2224755 C27.9173333,26.2224755 28.364,25.8740706 28.464,25.3681493 C28.584,24.7888093 28.208,24.225488 27.6306667,24.1106879 C27.292,24.0386041 26.9533333,23.9651854 26.62,23.8810877 C26.0466667,23.7409248 25.4693333,24.0906646 25.328,24.6633301 C25.188,25.2373306 25.5413333,25.8166705 26.1093333,25.9568334" id="Fill-26" fill="#EED2BE"></path>
                        <path d="M17.0053333,21.5663976 C17.1973333,21.7172396 17.4266667,21.7959978 17.6613333,21.7959978 C17.9733333,21.7959978 18.292,21.6545 18.5,21.3835184 C18.864,20.9203134 18.7813333,20.2475315 18.3173333,19.8871126 C18.0466667,19.673531 17.7813333,19.45461 17.5213333,19.2303493 C17.0733333,18.8445676 16.4013333,18.8966281 16.016,19.3451494 C15.6306667,19.7883311 15.6826667,20.4664526 16.1306667,20.8468947 C16.412,21.0965182 16.7026667,21.3314579 17.0053333,21.5663976" id="Fill-27" fill="#EED2BE"></path>
                    </g>
                </g>
            </g>
        </g>
    </g>
</svg>