<?xml version="1.0" encoding="UTF-8" standalone="no"?>
<svg width="35px" height="51px" viewBox="0 0 35 51" version="1.1" xmlns="http://www.w3.org/2000/svg" xmlns:xlink="http://www.w3.org/1999/xlink">
    <!-- Generator: Sketch 39.1 (31720) - http://www.bohemiancoding.com/sketch -->
    <title>pointer</title>
    <desc>Created with Sketch.</desc>
    <defs>
        <polygon id="path-1" points="17.3817 50.3020685 0.042 50.3020685 0.042 0.000698630137 17.3817 0.000698630137 34.7214 0.000698630137 34.7214 50.3020685 17.3817 50.3020685"></polygon>
    </defs>
    <g id="Page-1" stroke="none" stroke-width="1" fill="none" fill-rule="evenodd">
        <g id="Main-page" transform="translate(-1170.000000, -4484.000000)">
            <g id="contacts" transform="translate(390.000000, 4331.000000)">
                <g id="pointer" transform="translate(780.000000, 153.000000)">
                    <mask id="mask-2" fill="white">
                        <use xlink:href="#path-1"></use>
                    </mask>
                    <g id="Clip-2"></g>
                    <path d="M33.901,12.5215479 C33.7204,11.8501644 33.3564,11.1347671 33.0862,10.5073973 C29.862,2.77356164 22.8158,0.000698630137 17.1255,0.000698630137 C9.5102,0.000698630137 1.1214,5.09860274 0,15.6053014 L0,17.7500959 C0,17.8402192 0.0301,18.6450411 0.0735,19.0488493 C0.7028,24.0538356 4.662,29.376 7.6181,34.3837808 C10.7982,39.7485616 14.0987,45.0267123 17.3684,50.3020685 C19.3865,46.8578219 21.3962,43.3702603 23.3653,40.016137 C23.9036,39.033863 24.5273,38.051589 25.0635,37.1126301 C25.4212,36.4845616 26.1079,35.8599863 26.4194,35.278726 C29.5995,29.4661233 34.7214,23.6095068 34.7214,17.8402192 L34.7214,15.4711644 C34.7214,14.846589 33.9444,12.6549863 33.901,12.5215479 L33.901,12.5215479 Z M17.2648,23.2958219 C15.0255,23.2958219 12.5755,22.179411 11.3666,19.092863 C11.186,18.601726 11.2,17.6166575 11.2,17.5265342 L11.2,16.1397534 C11.2,12.2071644 14.5467,10.417274 17.4587,10.417274 C21.0413,10.417274 23.814,13.2802603 23.814,16.8579452 C23.814,20.4356301 20.8495,23.2958219 17.2648,23.2958219 L17.2648,23.2958219 Z" id="Fill-1" fill="#932724" mask="url(#mask-2)"></path>
                </g>
            </g>
        </g>
    </g>
</svg>