<?xml version="1.0" encoding="UTF-8" standalone="no"?>
<svg width="75px" height="81px" viewBox="0 0 75 81" version="1.1" xmlns="http://www.w3.org/2000/svg" xmlns:xlink="http://www.w3.org/1999/xlink">
    <!-- Generator: Sketch 39.1 (31720) - http://www.bohemiancoding.com/sketch -->
    <title>Page 1</title>
    <desc>Created with Sketch.</desc>
    <defs>
        <polygon id="path-1" points="50.6944857 55.9544806 50.6944857 -3.01850027e-05 6.37750242e-05 -3.01850027e-05 6.37750242e-05 55.9544806 25.3472747 55.9544806"></polygon>
    </defs>
    <g id="Page-1" stroke="none" stroke-width="1" fill="none" fill-rule="evenodd">
        <g id="Main-page" transform="translate(-777.000000, -2476.000000)">
            <g id="teraphy" transform="translate(0.000000, 1714.000000)">
                <g id="surgery" transform="translate(776.000000, 752.000000)">
                    <g id="Page-1" transform="translate(0.000000, 10.000000)">
                        <polygon id="Fill-1" fill="#F3D8C7" points="5 7.21284373 7.21243364 7.21284373 7.21243364 5 5 5"></polygon>
                        <polygon id="Fill-2" fill="#F3D8C7" points="5 12.2128437 7.21243364 12.2128437 7.21243364 10 5 10"></polygon>
                        <polygon id="Fill-3" fill="#932724" points="9 7.21284373 11.2179716 7.21284373 11.2179716 5 9 5"></polygon>
                        <polygon id="Fill-5" fill="#932724" points="9 12.2183828 11.2124336 12.2183828 11.2124336 10 9 10"></polygon>
                        <polygon id="Fill-4" fill="#F3D8C7" points="5 21.2128437 7.21243364 21.2128437 7.21243364 19 5 19"></polygon>
                        <polygon id="Fill-6" fill="#F3D8C7" points="5 16.2128437 7.21243364 16.2128437 7.21243364 14 5 14"></polygon>
                        <g id="Group-15" transform="translate(0.000000, 0.624691)">
                            <polyline id="Stroke-11" stroke="#EBE1D6" stroke-width="2" stroke-linecap="round" stroke-linejoin="round" points="58.6144287 43.6436935 63.7782897 32.6402169 74.6392644 32.6402169"></polyline>
                            <polyline id="Stroke-13" stroke="#EBE1D6" stroke-width="2" stroke-linecap="round" stroke-linejoin="round" points="18.1646792 44.6881169 13.0008182 33.6846403 2.13984352 33.6846403"></polyline>
                            <path d="M66.315876,75.7584978 C66.315876,77.3319337 65.0396304,78.6081793 63.4674811,78.6081793 L11.5325189,78.6081793 C9.96036956,78.6081793 8.68412396,77.3319337 8.68412396,75.7584978 L8.68412396,42.3496815 C8.68412396,40.7762456 9.96036956,39.5 11.5325189,39.5 L11.6984823,39.5 C11.7087746,39.5604673 11.7190669,39.6209346 11.724213,39.6852615 C11.9146206,40.9576474 12.1063148,42.2390392 12.2915762,43.5255771 C13.6437276,52.802802 15.0357616,62.4016613 18.6239158,71.0652076 L18.7448504,71.3572517 C19.6389942,73.5276411 21.1262321,77.1608242 23.7250386,77.1608242 L23.9360308,77.1608242 L24.1264385,77.0810588 C26.5091067,76.0711265 27.4032505,73.7836621 28.0516656,72.1150225 C28.4890885,70.9893018 28.8814826,69.8391369 29.2635843,68.7288547 C30.2130493,65.9293482 31.1174854,63.2803667 32.7410963,60.9041312 C33.9723131,59.1042646 37.2993001,55.1841836 41.5461617,57.7122306 C44.3855509,59.4014549 45.2745486,62.8133534 46.1339559,66.1094635 C46.3796846,67.0499227 46.6318461,68.0199723 46.9277498,68.9295546 C48.174405,72.7634376 49.7928697,76.7234013 52.3505071,76.985855 C53.6820738,77.1209415 54.9390213,76.2113592 56.0390112,74.2764062 C58.0588758,70.7435731 58.9234292,66.8029075 59.7583923,62.9986149 L60.0542961,61.6670481 C60.3810767,60.1952488 60.74774,58.677134 61.1246956,57.1242828 C62.4665546,51.5458544 63.9139098,45.4901205 64.2008077,39.6054961 C65.416586,39.9322767 66.315876,41.0322666 66.315876,42.3496815 L66.315876,75.7584978 Z" id="Page-1" stroke="#C6AFA1" stroke-width="2"></path>
                            <g id="Page-1" transform="translate(13.000000, 0.000000)">
                                <mask id="mask-2" fill="white">
                                    <use xlink:href="#path-1"></use>
                                </mask>
                                <g id="Clip-2"></g>
                                <path d="M45.7654025,36.2441223 C45.403687,37.7456638 45.0518477,39.2175452 44.7333406,40.6375215 L44.4494001,41.9264991 C43.6778227,45.4399826 42.8815549,49.0708706 41.0927299,52.2037165 C40.4952204,53.2603568 39.8964763,53.8399642 39.4680965,53.8214266 C39.0150263,53.773229 37.7656882,53.0576796 35.9422965,47.4346229 C35.6768739,46.6177349 35.4509561,45.7538851 35.2139275,44.8368943 C34.4337085,41.8486414 33.5609001,38.5131183 31.0239537,36.3701776 C31.0140775,36.3602909 31.0042013,36.3553476 30.9992632,36.3504042 C30.6671763,36.0698693 30.3054608,35.8091078 29.9141168,35.573063 C26.1438811,33.3287837 21.8946501,34.7277507 18.8231549,39.2224885 C18.649087,39.4733634 18.4811918,39.7390682 18.3071239,40.028254 C16.9133465,42.3219668 16.0652287,44.8035267 15.2405668,47.2171157 C14.8887275,48.2651051 14.5171358,49.3464622 14.112212,50.3882725 C13.4801358,52.010926 12.8875644,53.3184411 11.6332882,53.9561328 C10.5148096,53.6755979 9.31361798,50.7652026 8.85067155,49.635648 L8.72968821,49.3415188 C5.38289417,41.2455531 4.06195369,32.1497955 2.78422155,23.3592896 C2.6002775,22.1185096 2.42250607,20.882673 2.23856202,19.6616664 C1.24106679,13.0239879 3.27556202,5.25675468 10.0703811,2.84316574 C11.1752799,2.45140553 12.4283215,2.29198261 13.7406204,2.29198261 C16.7590311,2.29198261 20.0910108,3.13235152 22.6526477,3.88497602 C28.9981001,7.4911473 28.9981001,9.05571647 28.9697061,15.5055478 L28.9697061,16.8081196 C28.9697061,17.3593028 29.407962,17.7980248 29.9585596,17.7980248 C30.5029846,17.7980248 30.9412406,17.3593028 30.9412406,16.8081196 L30.9461787,15.5104912 C30.9708692,9.8565386 30.960993,7.19207484 26.4475739,3.95294704 C26.7179346,3.84666509 27.0500215,3.72184559 27.4796358,3.57107352 C27.619137,3.51793254 27.7635763,3.46108406 27.9080156,3.39805639 L28.0586275,3.33502872 C32.9485763,1.31196416 38.3199894,1.55418814 42.0815835,3.97272042 C45.1481406,5.95129486 47.2172025,8.45757154 47.8974251,11.0392343 C49.9566108,18.8262408 47.7282954,28.0801855 45.7654025,36.2441223 M49.8072335,10.5325412 C49.0010894,7.47260975 46.6332727,4.55109196 43.1469775,2.31175599 C38.8557727,-0.44910303 32.7794465,-0.763005534 27.3006299,1.50969802 L27.1228585,1.58261238 C27.0265656,1.62586667 26.9339763,1.66912095 26.8327454,1.70372437 C26.374737,1.8631473 26.0179596,1.99785349 25.7340192,2.10907879 C24.8217061,2.46129223 24.8217061,2.46623557 23.3229942,2.02257022 C19.0404311,0.757073518 13.591243,-0.502244005 9.40991083,0.979524111 C3.75332274,2.98775863 -1.26625107,9.63532385 0.285545357,19.9508522 C0.4744275,21.1730946 0.647260833,22.4039879 0.831204881,23.6447679 C2.1286894,32.5563858 3.46444417,41.7720195 6.90753107,50.0990867 L7.02727988,50.3833291 C7.88157036,52.4694213 9.31361798,55.9544806 11.802418,55.9544806 L12.0048799,55.9544806 L12.1875894,55.8778588 C14.4739275,54.907727 15.3319215,52.7104095 15.9541215,51.1075294 C16.3738596,50.0261723 16.7491549,48.9213344 17.1108704,47.8585149 C17.5886311,46.4546045 19.1848704,42.8002356 19.7391715,41.4964279 C19.8453406,41.3135241 19.9465715,41.1442145 20.0478025,40.9749049 C20.178662,40.762341 20.3132251,40.5497771 20.4527263,40.3372132 C20.5305013,40.2321671 20.6119799,40.1159984 20.6996311,39.9948864 C22.0403239,38.1609049 25.0772525,34.9934556 28.9018073,37.2723383 C29.2203144,37.4601855 29.509193,37.6776928 29.7746156,37.91003 C29.8758465,37.9965386 29.9672013,38.0978772 30.0647287,38.1893291 C30.2190442,38.3388653 30.3684215,38.4884016 30.5079227,38.6527679 C30.6375477,38.8072474 30.7634692,38.9716137 30.8844525,39.1458667 C30.960993,39.2558561 31.0437061,39.3621381 31.1153085,39.4783067 C31.274562,39.7242382 31.4288775,39.9849997 31.5733168,40.270478 C31.5881311,40.2989022 31.6029454,40.3285623 31.6165251,40.3520432 C31.8621954,41.147922 33.0930156,44.5229918 33.3004156,45.3337007 C33.5362096,46.2370972 33.7818799,47.1738614 34.0621168,48.0475979 C35.2583704,51.730391 36.8151049,55.5342962 39.2656346,55.785171 C40.5433668,55.9112264 41.748262,55.0424332 42.8099525,53.1837349 C44.7432168,49.7901275 45.5777549,46.0047599 46.3777263,42.350391 L46.6579632,41.0713001 C46.9764704,39.657503 47.3283096,38.1992158 47.685087,36.707561 C49.7060025,28.3125228 51.9911061,18.8027599 49.8072335,10.5325412" id="Fill-1" fill="#F2D7C7" mask="url(#mask-2)"></path>
                            </g>
                        </g>
                    </g>
                </g>
            </g>
        </g>
    </g>
</svg>